<svg width="188" height="49" viewBox="0 0 188 49" fill="none" xmlns="http://www.w3.org/2000/svg">
<g clip-path="url(#clip0_869_33282)">
<path d="M39.8333 31.1725C39.8318 31.3914 39.7443 31.6008 39.5896 31.7557C39.4349 31.9105 39.2255 31.9983 39.0067 32L23.9933 32C23.774 31.9998 23.5637 31.9125 23.4087 31.7573C23.2537 31.6022 23.1667 31.3918 23.1667 31.1725V30.3333L38.1667 30.3333V20.5833L31.5 26.5833L23.1667 19.0833V17.8333C23.1667 17.6123 23.2545 17.4004 23.4107 17.2441C23.567 17.0878 23.779 17 24 17L39 17C39.221 17 39.433 17.0878 39.5893 17.2441C39.7455 17.4004 39.8333 17.6123 39.8333 17.8333V31.1725ZM25.195 18.6667L31.5 24.3417L37.805 18.6667L25.195 18.6667ZM21.5 27H28.1667V28.6667H21.5L21.5 27ZM21.5 22.8333H25.6667V24.5H21.5V22.8333Z" fill="url(#paint0_linear_869_33282)"/>
</g>
<path d="M56.25 30.894C56.778 30.894 57.216 30.858 57.564 30.786C57.924 30.714 58.206 30.612 58.41 30.48C58.626 30.348 58.776 30.186 58.86 29.994C58.956 29.814 59.004 29.616 59.004 29.4C59.004 29.16 58.938 28.95 58.806 28.77C58.674 28.59 58.452 28.5 58.14 28.5H55.548L55.656 26.52H61.902C62.166 26.52 62.298 26.838 62.298 27.474C62.298 28.158 62.166 28.5 61.902 28.5H60.354C60.51 28.62 60.612 28.776 60.66 28.968C60.72 29.16 60.75 29.394 60.75 29.67C60.75 29.994 60.678 30.342 60.534 30.714C60.39 31.086 60.15 31.428 59.814 31.74C59.49 32.064 59.052 32.328 58.5 32.532C57.96 32.748 57.294 32.856 56.502 32.856H54.594C53.25 32.856 52.206 32.442 51.462 31.614C50.718 30.786 50.346 29.652 50.346 28.212V24.99H52.164V28.14C52.164 28.56 52.212 28.938 52.308 29.274C52.404 29.61 52.554 29.898 52.758 30.138C52.974 30.378 53.25 30.564 53.586 30.696C53.934 30.828 54.354 30.894 54.846 30.894H56.25ZM63.5662 26.52C64.3702 26.52 64.7722 26.13 64.7722 25.35V23.226L66.6082 23.226V25.476C66.6082 26.472 66.3562 27.228 65.8522 27.744C65.3482 28.248 64.6402 28.5 63.7282 28.5H61.9102C61.7542 28.5 61.6522 28.422 61.6042 28.266C61.5442 28.098 61.5142 27.858 61.5142 27.546C61.5142 27.198 61.5442 26.94 61.6042 26.772C61.6522 26.604 61.7542 26.52 61.9102 26.52H63.5662ZM66.0502 21.12H64.0162V19.284H66.0502V21.12ZM71.2243 28.5C70.8883 28.5 70.5643 28.458 70.2523 28.374C69.9523 28.278 69.6883 28.122 69.4603 27.906C69.2323 27.69 69.0523 27.408 68.9203 27.06C68.7883 26.7 68.7223 26.256 68.7223 25.728V17.34H70.5583V25.278C70.5583 25.662 70.6423 25.968 70.8103 26.196C70.9903 26.412 71.2543 26.52 71.6023 26.52H72.0163C72.2803 26.52 72.4123 26.838 72.4123 27.474C72.4123 28.158 72.2803 28.5 72.0163 28.5H71.2243ZM73.2776 26.52C74.0816 26.52 74.4836 26.13 74.4836 25.35V23.226H76.3376V25.35C76.3376 25.77 76.4636 26.07 76.7156 26.25C76.9796 26.43 77.2856 26.52 77.6336 26.52H78.1016C78.3776 26.52 78.5156 26.838 78.5156 27.474C78.5156 28.158 78.3776 28.5 78.1016 28.5H77.5796C77.1236 28.5 76.7096 28.428 76.3376 28.284C75.9656 28.128 75.6416 27.822 75.3656 27.366C75.0656 27.822 74.7416 28.128 74.3936 28.284C74.0456 28.428 73.6736 28.5 73.2776 28.5H72.0176C71.8616 28.5 71.7596 28.422 71.7116 28.266C71.6516 28.098 71.6216 27.858 71.6216 27.546C71.6216 27.198 71.6516 26.94 71.7116 26.772C71.7596 26.604 71.8616 26.52 72.0176 26.52H73.2776ZM75.9596 32.352H73.9256V30.516H75.9596V32.352ZM79.3596 26.52C80.1636 26.52 80.5656 26.13 80.5656 25.35V23.226H82.4196V25.35C82.4196 25.77 82.5456 26.07 82.7976 26.25C83.0616 26.43 83.3676 26.52 83.7156 26.52H84.1836C84.4596 26.52 84.5976 26.838 84.5976 27.474C84.5976 28.158 84.4596 28.5 84.1836 28.5H83.6616C83.2056 28.5 82.7916 28.428 82.4196 28.284C82.0476 28.128 81.7236 27.822 81.4476 27.366C81.1476 27.822 80.8236 28.128 80.4756 28.284C80.1276 28.428 79.7556 28.5 79.3596 28.5H78.0996C77.9436 28.5 77.8416 28.422 77.7936 28.266C77.7336 28.098 77.7036 27.858 77.7036 27.546C77.7036 27.198 77.7336 26.94 77.7936 26.772C77.8416 26.604 77.9436 26.52 78.0996 26.52H79.3596ZM83.3556 32.28L81.5016 32.28V30.516L83.3556 30.516V32.28ZM80.7636 32.28H78.9096V30.516H80.7636V32.28ZM85.4416 26.52C86.2456 26.52 86.6476 26.13 86.6476 25.35V23.226H88.5016V25.35C88.5016 25.77 88.6276 26.07 88.8796 26.25C89.1436 26.43 89.4496 26.52 89.7976 26.52H90.2656C90.5416 26.52 90.6796 26.838 90.6796 27.474C90.6796 28.158 90.5416 28.5 90.2656 28.5H89.7436C89.2876 28.5 88.8736 28.428 88.5016 28.284C88.1296 28.128 87.8056 27.822 87.5296 27.366C87.2296 27.822 86.9056 28.128 86.5576 28.284C86.2096 28.428 85.8376 28.5 85.4416 28.5H84.1816C84.0256 28.5 83.9236 28.422 83.8756 28.266C83.8156 28.098 83.7856 27.858 83.7856 27.546C83.7856 27.198 83.8156 26.94 83.8756 26.772C83.9236 26.604 84.0256 26.52 84.1816 26.52H85.4416ZM89.5636 21.12H87.6916V19.356H89.5636V21.12ZM86.9896 21.12H85.1176V19.356H86.9896V21.12ZM91.0557 26.52C91.8837 26.52 92.2977 26.13 92.2977 25.35V23.226H94.1157V25.35C94.1157 25.77 94.2417 26.07 94.4937 26.25C94.7577 26.43 95.0577 26.52 95.3937 26.52C96.2937 26.52 96.7437 26.13 96.7437 25.35V23.226H98.5797V25.35C98.5797 25.77 98.6877 26.07 98.9037 26.25C99.1317 26.43 99.3957 26.52 99.6957 26.52C100.452 26.52 100.83 26.13 100.83 25.35V23.226H102.666V25.35C102.666 25.77 102.792 26.07 103.044 26.25C103.308 26.43 103.602 26.52 103.926 26.52H104.34C104.496 26.52 104.598 26.604 104.646 26.772C104.706 26.928 104.736 27.162 104.736 27.474C104.736 27.822 104.706 28.08 104.646 28.248C104.598 28.416 104.496 28.5 104.34 28.5H103.926C103.47 28.5 103.05 28.428 102.666 28.284C102.294 28.128 101.97 27.822 101.694 27.366C101.406 27.822 101.076 28.128 100.704 28.284C100.344 28.428 100.008 28.5 99.6957 28.5C99.2757 28.5 98.8917 28.428 98.5437 28.284C98.2077 28.128 97.9017 27.822 97.6257 27.366C97.3377 27.822 96.9957 28.128 96.5997 28.284C96.2157 28.428 95.8137 28.5 95.3937 28.5C94.9377 28.5 94.5177 28.428 94.1337 28.284C93.7617 28.128 93.4377 27.822 93.1617 27.366C92.8737 27.822 92.5497 28.128 92.1897 28.284C91.8297 28.428 91.4457 28.5 91.0377 28.5H90.2637C90.1077 28.5 90.0057 28.422 89.9577 28.266C89.8977 28.098 89.8677 27.858 89.8677 27.546C89.8677 27.198 89.8977 26.94 89.9577 26.772C90.0057 26.604 90.1077 26.52 90.2637 26.52H91.0557ZM98.5977 18.6H96.6897V16.854H98.5977V18.6ZM99.8577 21.12H97.9857V19.356H99.8577V21.12ZM97.2837 21.12H95.4117V19.356H97.2837V21.12ZM106 26.52C106.804 26.52 107.206 26.13 107.206 25.35V23.226H109.042V25.476C109.042 26.472 108.79 27.228 108.286 27.744C107.782 28.248 107.074 28.5 106.162 28.5H104.344C104.188 28.5 104.086 28.422 104.038 28.266C103.978 28.098 103.948 27.858 103.948 27.546C103.948 27.198 103.978 26.94 104.038 26.772C104.086 26.604 104.188 26.52 104.344 26.52H106ZM107.548 34.8H105.64V33.036H107.548V34.8ZM108.808 32.28H106.936V30.516H108.808V32.28ZM106.234 32.28L104.362 32.28V30.516L106.234 30.516V32.28ZM116.442 25.908C116.91 25.908 117.264 25.812 117.504 25.62C117.744 25.416 117.864 25.152 117.864 24.828V23.154H116.604C116.1 23.154 115.74 23.298 115.524 23.586C115.308 23.862 115.2 24.228 115.2 24.684C115.2 25.104 115.296 25.416 115.488 25.62C115.68 25.812 115.998 25.908 116.442 25.908ZM119.628 25.278C119.628 25.662 119.712 25.968 119.88 26.196C120.048 26.412 120.312 26.52 120.672 26.52H121.086C121.242 26.52 121.344 26.604 121.392 26.772C121.452 26.928 121.482 27.162 121.482 27.474C121.482 27.822 121.452 28.08 121.392 28.248C121.344 28.416 121.242 28.5 121.086 28.5H120.672C120.06 28.5 119.556 28.392 119.16 28.176C118.776 27.96 118.5 27.582 118.332 27.042C118.032 27.366 117.672 27.576 117.252 27.672C116.832 27.768 116.436 27.816 116.064 27.816C115.2 27.816 114.546 27.564 114.102 27.06C113.658 26.544 113.436 25.8 113.436 24.828C113.436 24.396 113.496 23.97 113.616 23.55C113.748 23.13 113.934 22.758 114.174 22.434C114.426 22.098 114.738 21.828 115.11 21.624C115.494 21.42 115.938 21.318 116.442 21.318H117.864V20.112H119.628V25.278ZM122.734 26.52C123.538 26.52 123.94 26.13 123.94 25.35V23.226H125.776V25.476C125.776 26.472 125.524 27.228 125.02 27.744C124.516 28.248 123.808 28.5 122.896 28.5L121.078 28.5C120.922 28.5 120.82 28.422 120.772 28.266C120.712 28.098 120.682 27.858 120.682 27.546C120.682 27.198 120.712 26.94 120.772 26.772C120.82 26.604 120.922 26.52 121.078 26.52L122.734 26.52ZM123.67 32.352H121.636V30.516H123.67V32.352ZM139.026 26.52C139.83 26.52 140.232 26.13 140.232 25.35V23.226H142.068V25.35C142.068 25.77 142.2 26.07 142.464 26.25C142.74 26.43 143.052 26.52 143.4 26.52H143.76C143.916 26.52 144.018 26.604 144.066 26.772C144.126 26.928 144.156 27.162 144.156 27.474C144.156 27.822 144.126 28.08 144.066 28.248C144.018 28.416 143.916 28.5 143.76 28.5H143.328C142.884 28.5 142.47 28.428 142.086 28.284C141.714 28.128 141.39 27.822 141.114 27.366C140.826 27.822 140.502 28.128 140.142 28.284C139.794 28.428 139.422 28.5 139.026 28.5H132.96C132.468 28.5 132.042 28.428 131.682 28.284C131.334 28.128 131.046 27.924 130.818 27.672C130.602 27.42 130.44 27.126 130.332 26.79C130.236 26.454 130.188 26.1 130.188 25.728V23.172H132.024V25.26C132.024 25.656 132.108 25.968 132.276 26.196C132.456 26.412 132.822 26.52 133.374 26.52H139.026ZM138.342 21.768H136.47V20.004H138.342V21.768ZM135.768 21.768H133.896V20.004H135.768V21.768ZM148.218 26.52C148.542 26.52 148.764 26.454 148.884 26.322C149.016 26.19 149.082 26.028 149.082 25.836C149.082 25.656 149.046 25.482 148.974 25.314C148.914 25.134 148.776 24.942 148.56 24.738L145.158 21.336V19.284L151.116 17.034L151.53 18.87L146.94 20.562L149.586 23.244C150.126 23.784 150.588 24.24 150.972 24.612C151.368 24.984 151.71 25.29 151.998 25.53C152.298 25.77 152.556 25.962 152.772 26.106C153 26.238 153.21 26.334 153.402 26.394C153.594 26.454 153.78 26.49 153.96 26.502C154.152 26.514 154.368 26.52 154.608 26.52C154.764 26.52 154.866 26.604 154.914 26.772C154.974 26.928 155.004 27.162 155.004 27.474C155.004 27.822 154.974 28.08 154.914 28.248C154.866 28.416 154.764 28.5 154.608 28.5C154.248 28.5 153.918 28.482 153.618 28.446C153.33 28.41 153.048 28.338 152.772 28.23C152.496 28.11 152.202 27.936 151.89 27.708C151.578 27.468 151.224 27.15 150.828 26.754C150.744 27.378 150.474 27.828 150.018 28.104C149.574 28.368 149.046 28.5 148.434 28.5H143.754C143.598 28.5 143.496 28.422 143.448 28.266C143.388 28.098 143.358 27.858 143.358 27.546C143.358 27.198 143.388 26.94 143.448 26.772C143.496 26.604 143.598 26.52 143.754 26.52H148.218ZM155.86 26.52C156.664 26.52 157.066 26.13 157.066 25.35V23.226H158.92V25.35C158.92 25.77 159.046 26.07 159.298 26.25C159.562 26.43 159.868 26.52 160.216 26.52H160.684C160.96 26.52 161.098 26.838 161.098 27.474C161.098 28.158 160.96 28.5 160.684 28.5H160.162C159.706 28.5 159.292 28.428 158.92 28.284C158.548 28.128 158.224 27.822 157.948 27.366C157.648 27.822 157.324 28.128 156.976 28.284C156.628 28.428 156.256 28.5 155.86 28.5H154.6C154.444 28.5 154.342 28.422 154.294 28.266C154.234 28.098 154.204 27.858 154.204 27.546C154.204 27.198 154.234 26.94 154.294 26.772C154.342 26.604 154.444 26.52 154.6 26.52H155.86ZM159.856 32.28H158.002V30.516H159.856V32.28ZM157.264 32.28H155.41V30.516H157.264V32.28ZM162.338 26.52C163.142 26.52 163.544 26.13 163.544 25.35V23.226H165.38V25.476C165.38 26.472 165.128 27.228 164.624 27.744C164.12 28.248 163.412 28.5 162.5 28.5H160.682C160.526 28.5 160.424 28.422 160.376 28.266C160.316 28.098 160.286 27.858 160.286 27.546C160.286 27.198 160.316 26.94 160.376 26.772C160.424 26.604 160.526 26.52 160.682 26.52H162.338ZM165.434 21.12H163.562V19.356H165.434V21.12ZM162.86 21.12H160.988V19.356H162.86V21.12Z" fill="url(#paint1_linear_869_33282)"/>
<rect x="0.5" y="1" width="187" height="47" rx="23.5" stroke="url(#paint2_linear_869_33282)"/>
<defs>
<linearGradient id="paint0_linear_869_33282" x1="39.8333" y1="32" x2="22.4383" y2="32" gradientUnits="userSpaceOnUse">
<stop stop-color="#0038FF"/>
<stop offset="1" stop-color="#356EFF"/>
</linearGradient>
<linearGradient id="paint1_linear_869_33282" x1="166.5" y1="36.5" x2="55.4882" y2="36.5" gradientUnits="userSpaceOnUse">
<stop stop-color="#0038FF"/>
<stop offset="1" stop-color="#356EFF"/>
</linearGradient>
<linearGradient id="paint2_linear_869_33282" x1="188" y1="48.5" x2="9.62206" y2="48.5" gradientUnits="userSpaceOnUse">
<stop stop-color="#0038FF"/>
<stop offset="1" stop-color="#356EFF"/>
</linearGradient>
<clipPath id="clip0_869_33282">
<rect width="20" height="20" fill="white" transform="translate(21.5 14.5)"/>
</clipPath>
</defs>
</svg>
