<svg width="116" height="78" viewBox="0 0 116 78" fill="none" xmlns="http://www.w3.org/2000/svg">
<path d="M6.50571 77.3019C4.95063 77.8848 3.2095 77.0987 2.70797 75.5155C0.38251 68.1746 -0.460933 60.434 0.238523 52.7453C1.02892 44.057 3.76911 35.659 8.25505 28.1765C12.741 20.6941 18.8571 14.32 26.148 9.52889C33.4388 4.73782 41.7166 1.65321 50.3648 0.504749C59.013 -0.64371 67.809 0.173575 76.0975 2.89575C84.3861 5.61791 91.9539 10.1748 98.2372 16.2272C104.521 22.2795 109.358 29.6713 112.388 37.8522C115.07 45.0918 116.276 52.7843 115.947 60.4777C115.876 62.1369 114.401 63.3502 112.747 63.1934C111.094 63.0366 109.89 61.5689 109.951 59.9092C110.2 53.1176 109.116 46.3326 106.749 39.9413C104.032 32.6087 99.6968 25.9834 94.0649 20.5586C88.4332 15.1339 81.6501 11.0495 74.221 8.60955C66.7919 6.16965 58.908 5.43711 51.1565 6.46648C43.405 7.49585 35.9856 10.2606 29.4507 14.5549C22.9159 18.8492 17.4339 24.5623 13.4131 31.2689C9.39235 37.9755 6.9363 45.5028 6.22786 53.2902C5.61037 60.0778 6.33446 66.9107 8.34798 73.4018C8.84001 74.988 8.06079 76.719 6.50571 77.3019Z" fill="url(#paint0_linear_992_38561)"/>
<defs>
<linearGradient id="paint0_linear_992_38561" x1="116" y1="116" x2="5.93701" y2="116" gradientUnits="userSpaceOnUse">
<stop stop-color="#0038FF"/>
<stop offset="1" stop-color="#356EFF"/>
</linearGradient>
</defs>
</svg>
