<svg width="339" height="16" viewBox="0 0 339 16" fill="none" xmlns="http://www.w3.org/2000/svg">
<g clip-path="url(#clip0_640_10029)">
<path d="M336.75 3L330 9.75C326.272 13.4779 320.228 13.4779 316.5 9.75C312.772 6.02208 306.728 6.02208 303 9.75C299.272 13.4779 293.228 13.4779 289.5 9.75C285.772 6.02208 279.728 6.02208 276 9.75C272.272 13.4779 266.228 13.4779 262.5 9.75C258.772 6.02208 252.728 6.02208 249 9.75C245.272 13.4779 239.228 13.4779 235.5 9.75C231.772 6.02208 225.728 6.02208 222 9.75C218.272 13.4779 212.228 13.4779 208.5 9.75C204.772 6.02208 198.728 6.02208 195 9.75L194.657 10.0935C191.118 13.6317 185.382 13.6317 181.843 10.0935L180.907 9.1568C177.613 5.86259 172.193 6.1384 169.25 9.75C165.522 13.4779 159.478 13.4779 155.75 9.75C152.022 6.02208 145.978 6.02208 142.25 9.75C138.522 13.4779 132.478 13.4779 128.75 9.75C125.022 6.02208 118.978 6.02208 115.25 9.75C111.522 13.4779 105.478 13.4779 101.75 9.75C98.0221 6.02208 91.9779 6.02208 88.25 9.75C84.5221 13.4779 78.4779 13.4779 74.75 9.75C71.0221 6.02208 64.9779 6.02208 61.25 9.75C57.5221 13.4779 51.4779 13.4779 47.75 9.75C44.0221 6.02208 37.9779 6.02208 34.25 9.75C30.5221 13.4779 24.4779 13.4779 20.75 9.75C17.0221 6.02208 10.9779 6.02208 7.25 9.75L0.5 16.5" stroke="#FFA621" stroke-width="4"/>
</g>
<defs>
<clipPath id="clip0_640_10029">
<rect width="339" height="16" fill="white"/>
</clipPath>
</defs>
</svg>
