<svg width="126" height="16" viewBox="0 0 126 16" fill="none" xmlns="http://www.w3.org/2000/svg">
<g clip-path="url(#clip0_1605_27827)">
<path d="M123.75 3L117 9.75C113.272 13.4779 107.228 13.4779 103.5 9.75C99.7721 6.02208 93.7279 6.02208 90 9.75C86.2721 13.4779 80.2279 13.4779 76.5 9.75C72.7721 6.02208 66.7279 6.02208 63 9.75C59.2721 13.4779 53.2279 13.4779 49.5 9.75C45.7721 6.02208 39.7279 6.02208 36 9.75C32.2721 13.4779 26.2279 13.4779 22.5 9.75C18.7721 6.02208 12.7279 6.02208 9 9.75C5.27208 13.4779 -0.772079 13.4779 -4.5 9.75C-8.22792 6.02208 -14.2721 6.02208 -18 9.75L-18.3435 10.0935C-21.8817 13.6317 -27.6183 13.6317 -31.1565 10.0935L-32.0932 9.1568C-35.3874 5.86259 -40.8072 6.1384 -43.75 9.75C-47.4779 13.4779 -53.5221 13.4779 -57.25 9.75C-60.9779 6.02208 -67.0221 6.02208 -70.75 9.75C-74.4779 13.4779 -80.5221 13.4779 -84.25 9.75C-87.9779 6.02208 -94.0221 6.02208 -97.75 9.75C-101.478 13.4779 -107.522 13.4779 -111.25 9.75C-114.978 6.02208 -121.022 6.02208 -124.75 9.75C-128.478 13.4779 -134.522 13.4779 -138.25 9.75C-141.978 6.02208 -148.022 6.02208 -151.75 9.75C-155.478 13.4779 -161.522 13.4779 -165.25 9.75C-168.978 6.02208 -175.022 6.02208 -178.75 9.75C-182.478 13.4779 -188.522 13.4779 -192.25 9.75C-195.978 6.02208 -202.022 6.02208 -205.75 9.75L-212.5 16.5" stroke="#FFA621" stroke-width="4"/>
</g>
<defs>
<clipPath id="clip0_1605_27827">
<rect width="126" height="16" fill="white"/>
</clipPath>
</defs>
</svg>
