<svg width="226" height="16" viewBox="0 0 226 16" fill="none" xmlns="http://www.w3.org/2000/svg">
<g clip-path="url(#clip0_718_11763)">
<path d="M223.75 3L217 9.75C213.272 13.4779 207.228 13.4779 203.5 9.75C199.772 6.02208 193.728 6.02208 190 9.75C186.272 13.4779 180.228 13.4779 176.5 9.75C172.772 6.02208 166.728 6.02208 163 9.75C159.272 13.4779 153.228 13.4779 149.5 9.75C145.772 6.02208 139.728 6.02208 136 9.75C132.272 13.4779 126.228 13.4779 122.5 9.75C118.772 6.02208 112.728 6.02208 109 9.75C105.272 13.4779 99.2279 13.4779 95.5 9.75C91.7721 6.02208 85.7279 6.02208 82 9.75L81.6565 10.0935C78.1183 13.6317 72.3817 13.6317 68.8435 10.0935L67.9068 9.1568C64.6126 5.86259 59.1928 6.1384 56.25 9.75C52.5221 13.4779 46.4779 13.4779 42.75 9.75C39.0221 6.02208 32.9779 6.02208 29.25 9.75C25.5221 13.4779 19.4779 13.4779 15.75 9.75C12.0221 6.02208 5.97792 6.02208 2.25 9.75C-1.47792 13.4779 -7.52208 13.4779 -11.25 9.75C-14.9779 6.02208 -21.0221 6.02208 -24.75 9.75C-28.4779 13.4779 -34.5221 13.4779 -38.25 9.75C-41.9779 6.02208 -48.0221 6.02208 -51.75 9.75C-55.4779 13.4779 -61.5221 13.4779 -65.25 9.75C-68.9779 6.02208 -75.0221 6.02208 -78.75 9.75C-82.4779 13.4779 -88.5221 13.4779 -92.25 9.75C-95.9779 6.02208 -102.022 6.02208 -105.75 9.75L-112.5 16.5" stroke="#FFA621" stroke-width="3"/>
</g>
<defs>
<clipPath id="clip0_718_11763">
<rect width="226" height="16" fill="white"/>
</clipPath>
</defs>
</svg>
