<svg width="226" height="17" viewBox="0 0 226 17" fill="none" xmlns="http://www.w3.org/2000/svg">
<g clip-path="url(#clip0_789_11914)">
<path d="M223.75 3.28516L217 10.0352C213.272 13.7631 207.228 13.7631 203.5 10.0352C199.772 6.30723 193.728 6.30723 190 10.0352C186.272 13.7631 180.228 13.7631 176.5 10.0352C172.772 6.30723 166.728 6.30723 163 10.0352C159.272 13.7631 153.228 13.7631 149.5 10.0352C145.772 6.30723 139.728 6.30723 136 10.0352C132.272 13.7631 126.228 13.7631 122.5 10.0352C118.772 6.30723 112.728 6.30723 109 10.0352C105.272 13.7631 99.2279 13.7631 95.5 10.0352C91.7721 6.30723 85.7279 6.30724 82 10.0352L81.6565 10.3787C78.1183 13.9169 72.3817 13.9169 68.8435 10.3787L67.9068 9.44196C64.6126 6.14775 59.1928 6.42355 56.25 10.0352C52.5221 13.7631 46.4779 13.7631 42.75 10.0352C39.0221 6.30723 32.9779 6.30723 29.25 10.0352C25.5221 13.7631 19.4779 13.7631 15.75 10.0352C12.0221 6.30723 5.97792 6.30723 2.25 10.0352C-1.47792 13.7631 -7.52208 13.7631 -11.25 10.0352C-14.9779 6.30723 -21.0221 6.30723 -24.75 10.0352C-28.4779 13.7631 -34.5221 13.7631 -38.25 10.0352C-41.9779 6.30723 -48.0221 6.30723 -51.75 10.0352C-55.4779 13.7631 -61.5221 13.7631 -65.25 10.0352C-68.9779 6.30723 -75.0221 6.30723 -78.75 10.0352C-82.4779 13.7631 -88.5221 13.7631 -92.25 10.0352C-95.9779 6.30723 -102.022 6.30724 -105.75 10.0352L-112.5 16.7852" stroke="#FFA621" stroke-width="3"/>
</g>
<defs>
<clipPath id="clip0_789_11914">
<rect width="226" height="16" fill="white" transform="translate(0 0.285156)"/>
</clipPath>
</defs>
</svg>
