<svg width="156" height="16" viewBox="0 0 156 16" fill="none" xmlns="http://www.w3.org/2000/svg">
<g clip-path="url(#clip0_1605_13268)">
<path d="M153.75 3L147 9.75C143.272 13.4779 137.228 13.4779 133.5 9.75C129.772 6.02208 123.728 6.02208 120 9.75C116.272 13.4779 110.228 13.4779 106.5 9.75C102.772 6.02208 96.7279 6.02208 93 9.75C89.2721 13.4779 83.2279 13.4779 79.5 9.75C75.7721 6.02208 69.7279 6.02208 66 9.75C62.2721 13.4779 56.2279 13.4779 52.5 9.75C48.7721 6.02208 42.7279 6.02208 39 9.75C35.2721 13.4779 29.2279 13.4779 25.5 9.75C21.7721 6.02208 15.7279 6.02208 12 9.75L11.6565 10.0935C8.11827 13.6317 2.38173 13.6317 -1.15649 10.0935L-2.0932 9.1568C-5.38741 5.86259 -10.8072 6.1384 -13.75 9.75C-17.4779 13.4779 -23.5221 13.4779 -27.25 9.75C-30.9779 6.02208 -37.0221 6.02208 -40.75 9.75C-44.4779 13.4779 -50.5221 13.4779 -54.25 9.75C-57.9779 6.02208 -64.0221 6.02208 -67.75 9.75C-71.4779 13.4779 -77.5221 13.4779 -81.25 9.75C-84.9779 6.02208 -91.0221 6.02208 -94.75 9.75C-98.4779 13.4779 -104.522 13.4779 -108.25 9.75C-111.978 6.02208 -118.022 6.02208 -121.75 9.75C-125.478 13.4779 -131.522 13.4779 -135.25 9.75C-138.978 6.02208 -145.022 6.02208 -148.75 9.75C-152.478 13.4779 -158.522 13.4779 -162.25 9.75C-165.978 6.02208 -172.022 6.02208 -175.75 9.75C-179.478 13.4779 -185.522 13.4779 -189.25 9.75C-192.978 6.02208 -199.022 6.02208 -202.75 9.75C-206.478 13.4779 -212.522 13.4779 -216.25 9.75C-219.978 6.02208 -226.022 6.02208 -229.75 9.75C-233.478 13.4779 -239.522 13.4779 -243.25 9.75C-246.978 6.02208 -253.022 6.02208 -256.75 9.75C-260.478 13.4779 -266.522 13.4779 -270.25 9.75C-273.978 6.02208 -280.022 6.02208 -283.75 9.75L-284.093 10.0935C-287.632 13.6317 -293.368 13.6317 -296.907 10.0935L-297.843 9.1568C-301.137 5.86259 -306.557 6.1384 -309.5 9.75C-313.228 13.4779 -319.272 13.4779 -323 9.75C-326.728 6.02208 -332.772 6.02208 -336.5 9.75C-340.228 13.4779 -346.272 13.4779 -350 9.75C-353.728 6.02208 -359.772 6.02208 -363.5 9.75C-367.228 13.4779 -373.272 13.4779 -377 9.75C-380.728 6.02208 -386.772 6.02208 -390.5 9.75C-394.228 13.4779 -400.272 13.4779 -404 9.75C-407.728 6.02208 -413.772 6.02208 -417.5 9.75C-421.228 13.4779 -427.272 13.4779 -431 9.75C-434.728 6.02208 -440.772 6.02208 -444.5 9.75C-448.228 13.4779 -454.272 13.4779 -458 9.75C-461.728 6.02208 -467.772 6.02208 -471.5 9.75L-478.25 16.5" stroke="#FFA621" stroke-width="4"/>
</g>
<defs>
<clipPath id="clip0_1605_13268">
<rect width="156" height="16" fill="white"/>
</clipPath>
</defs>
</svg>
