<svg width="339" height="17" viewBox="0 0 339 17" fill="none" xmlns="http://www.w3.org/2000/svg">
<g clip-path="url(#clip0_789_11910)">
<path d="M336.75 3.28516L330 10.0352C326.272 13.7631 320.228 13.7631 316.5 10.0352C312.772 6.30723 306.728 6.30723 303 10.0352C299.272 13.7631 293.228 13.7631 289.5 10.0352C285.772 6.30723 279.728 6.30723 276 10.0352C272.272 13.7631 266.228 13.7631 262.5 10.0352C258.772 6.30723 252.728 6.30723 249 10.0352C245.272 13.7631 239.228 13.7631 235.5 10.0352C231.772 6.30723 225.728 6.30723 222 10.0352C218.272 13.7631 212.228 13.7631 208.5 10.0352C204.772 6.30723 198.728 6.30724 195 10.0352L194.656 10.3787C191.118 13.9169 185.382 13.9169 181.844 10.3787L180.907 9.44196C177.613 6.14775 172.193 6.42355 169.25 10.0352C165.522 13.7631 159.478 13.7631 155.75 10.0352C152.022 6.30723 145.978 6.30723 142.25 10.0352C138.522 13.7631 132.478 13.7631 128.75 10.0352C125.022 6.30723 118.978 6.30723 115.25 10.0352C111.522 13.7631 105.478 13.7631 101.75 10.0352C98.0221 6.30723 91.9779 6.30723 88.25 10.0352C84.5221 13.7631 78.4779 13.7631 74.75 10.0352C71.0221 6.30723 64.9779 6.30723 61.25 10.0352C57.5221 13.7631 51.4779 13.7631 47.75 10.0352C44.0221 6.30723 37.9779 6.30723 34.25 10.0352C30.5221 13.7631 24.4779 13.7631 20.75 10.0352C17.0221 6.30723 10.9779 6.30724 7.25 10.0352C3.52206 13.7631 -2.52206 13.7631 -6.25 10.0352C-9.97794 6.30723 -16.0221 6.30723 -19.75 10.0352C-23.4779 13.7631 -29.5221 13.7631 -33.25 10.0352C-36.9779 6.30723 -43.0221 6.30723 -46.75 10.0352C-50.4779 13.7631 -56.5221 13.7631 -60.25 10.0352C-63.9779 6.30723 -70.0221 6.30723 -73.75 10.0352C-77.4779 13.7631 -83.5221 13.7631 -87.25 10.0352C-90.9779 6.30723 -97.0221 6.30724 -100.75 10.0352L-101.093 10.3787C-104.632 13.9169 -110.368 13.9169 -113.907 10.3787L-114.843 9.44196C-118.137 6.14775 -123.557 6.42355 -126.5 10.0352C-130.228 13.7631 -136.272 13.7631 -140 10.0352C-143.728 6.30723 -149.772 6.30723 -153.5 10.0352C-157.228 13.7631 -163.272 13.7631 -167 10.0352C-170.728 6.30723 -176.772 6.30723 -180.5 10.0352C-184.228 13.7631 -190.272 13.7631 -194 10.0352C-197.728 6.30723 -203.772 6.30723 -207.5 10.0352C-211.228 13.7631 -217.272 13.7631 -221 10.0352C-224.728 6.30723 -230.772 6.30723 -234.5 10.0352C-238.228 13.7631 -244.272 13.7631 -248 10.0352C-251.728 6.30723 -257.772 6.30723 -261.5 10.0352C-265.228 13.7631 -271.272 13.7631 -275 10.0352C-278.728 6.30723 -284.772 6.30724 -288.5 10.0352L-295.25 16.7852" stroke="#FFA621" stroke-width="4"/>
</g>
<defs>
<clipPath id="clip0_789_11910">
<rect width="339" height="16" fill="white" transform="translate(0 0.285156)"/>
</clipPath>
</defs>
</svg>
