<svg width="83" height="24" viewBox="0 0 83 24" fill="none" xmlns="http://www.w3.org/2000/svg">
<path d="M6.90514 21.6198C5.66135 21.6198 4.5105 21.2966 3.45257 20.6501C2.39464 20.0184 1.55115 19.1589 0.922114 18.0716C0.307371 16.9844 0 15.8017 0 14.5234V10.4022H3.08801V14.3471C3.08801 15.0523 3.25957 15.7062 3.60268 16.3085C3.94579 16.9109 4.41042 17.3884 4.99657 17.741C5.58272 18.0937 6.21891 18.27 6.90514 18.27C7.60566 18.27 8.24899 18.0937 8.83514 17.741C9.43559 17.3884 9.90737 16.9109 10.2505 16.3085C10.5936 15.7062 10.7651 15.0523 10.7651 14.3471V9.52066H13.8532V14.5234C13.8532 15.8017 13.5386 16.9844 12.9096 18.0716C12.2949 19.1589 11.4514 20.0184 10.3791 20.6501C9.32122 21.2966 8.16321 21.6198 6.90514 21.6198ZM5.46835 7.47108H8.2347V10.292H5.46835V7.47108Z" fill="#4E55EE"/>
<path d="M19.6542 17.741C18.9108 17.741 18.2318 17.5574 17.617 17.1901C17.0023 16.8081 16.5162 16.3012 16.1588 15.6694C15.8014 15.023 15.6227 14.3251 15.6227 13.5758V2.88705H18.7107V13.3774C18.7107 13.6713 18.8036 13.921 18.9895 14.1267C19.1753 14.3177 19.404 14.4132 19.6757 14.4132H20.8551C20.9981 14.4132 21.0696 14.4867 21.0696 14.6336V17.5207C21.0696 17.6676 20.9981 17.741 20.8551 17.741H19.6542Z" fill="#4E55EE"/>
<path d="M20.6415 14.6336C20.6415 14.4867 20.713 14.4132 20.856 14.4132H22.2499C22.5358 14.4132 22.7717 14.3177 22.9575 14.1267C23.1434 13.921 23.2363 13.6713 23.2363 13.3774V9.52066H26.3243V13.3774C26.3243 13.6713 26.4172 13.921 26.6031 14.1267C26.7889 14.3177 27.0248 14.4132 27.3108 14.4132H28.7047C28.8476 14.4132 28.9191 14.4867 28.9191 14.6336V17.5207C28.9191 17.6676 28.8476 17.741 28.7047 17.741H27.3108C26.2528 17.741 25.4094 17.3811 24.7803 16.6612C24.1227 17.3811 23.2792 17.741 22.2499 17.741H20.856C20.713 17.741 20.6415 17.6676 20.6415 17.5207V14.6336ZM21.4779 4.78237H24.2228V7.60331H21.4779V4.78237ZM25.3379 4.78237H28.1042V7.60331H25.3379V4.78237Z" fill="#4E55EE"/>
<path d="M39.7102 17.741C38.6237 17.741 37.7802 17.3517 37.1798 16.573C36.5793 15.7796 36.2791 14.7805 36.2791 13.5758V9.52066H38.7452V13.3774C38.7452 13.6713 38.8381 13.921 39.024 14.1267C39.2098 14.3177 39.4386 14.4132 39.7102 14.4132H40.4822V8.8595H43.5702V17.741H39.7102ZM28.7092 17.741C28.5662 17.741 28.4947 17.6676 28.4947 17.5207V14.6336C28.4947 14.4867 28.5662 14.4132 28.7092 14.4132H29.6099C29.8958 14.4132 30.1317 14.3177 30.3175 14.1267C30.5177 13.921 30.6177 13.6713 30.6177 13.3774V9.52066H33.0839V13.5758C33.0839 14.7805 32.7765 15.7796 32.1618 16.573C31.5613 17.3517 30.7107 17.741 29.6099 17.741H28.7092ZM34.6708 17.7851C33.5842 17.7851 32.7336 17.3958 32.1189 16.6171C31.5184 15.8237 31.2182 14.8246 31.2182 13.6198V9.52066H33.6843V13.4215C33.6843 13.7153 33.7772 13.9651 33.9631 14.1708C34.1489 14.3618 34.3848 14.4573 34.6708 14.4573C34.9567 14.4573 35.1926 14.3618 35.3784 14.1708C35.5643 13.9651 35.6572 13.7153 35.6572 13.4215V9.52066H38.1233V13.6198C38.1233 14.8246 37.816 15.8237 37.2012 16.6171C36.6008 17.3958 35.7573 17.7851 34.6708 17.7851Z" fill="#4E55EE"/>
<path d="M46.8005 21.2011C48.0729 20.6428 49.0164 20.1873 49.6312 19.8347C50.2602 19.4821 50.6891 19.1515 50.9178 18.843C51.1466 18.5344 51.2609 18.1671 51.2609 17.741H49.867C49.0093 17.741 48.223 17.5427 47.5081 17.146C46.7933 16.7493 46.2215 16.2057 45.7926 15.5152C45.378 14.8099 45.1707 14.0239 45.1707 13.157C45.1707 12.2755 45.378 11.4674 45.7926 10.7328C46.2215 9.99816 46.7933 9.41782 47.5081 8.99174C48.223 8.55097 49.0093 8.33058 49.867 8.33058C50.6962 8.33058 51.4539 8.55097 52.1402 8.99174C52.8264 9.41782 53.3625 9.99816 53.7485 10.7328C54.1345 11.4674 54.3275 12.2755 54.3275 13.157V16.3747C54.3275 17.741 54.1202 18.843 53.7056 19.6804C53.3053 20.5326 52.6477 21.2672 51.7327 21.8843C50.8321 22.5161 49.5096 23.2213 47.7655 24L46.8005 21.2011ZM49.867 14.6116H51.2609V13.135C51.2609 12.7089 51.1251 12.3563 50.8535 12.0771C50.5962 11.798 50.2673 11.6584 49.867 11.6584C49.4525 11.6584 49.1022 11.798 48.8163 12.0771C48.5446 12.3563 48.4088 12.7089 48.4088 13.135C48.4088 13.5611 48.5446 13.9137 48.8163 14.1928C49.1022 14.472 49.4525 14.6116 49.867 14.6116ZM54.1774 14.4132H55.2067C55.3497 14.4132 55.4212 14.4867 55.4212 14.6336V17.5207C55.4212 17.6676 55.3497 17.741 55.2067 17.741H54.1774V14.4132Z" fill="#4E55EE"/>
<path d="M55.2007 17.741C55.0577 17.741 54.9863 17.6676 54.9863 17.5207V14.6336C54.9863 14.4867 55.0577 14.4132 55.2007 14.4132H62.0201C62.4061 14.4132 62.7349 14.281 63.0065 14.0165C63.2781 13.7521 63.414 13.3994 63.414 12.9587C63.414 12.4298 63.1709 12.011 62.6848 11.7025L57.8169 8.41873V6.01653L62.1058 1.34435L64.2074 3.39394L61.0336 6.80992L64.5934 9.21212C65.1938 9.60882 65.6585 10.1451 65.9873 10.8209C66.3304 11.4821 66.502 12.2167 66.502 13.0248C66.502 13.877 66.2947 14.663 65.8801 15.3829C65.4798 16.1028 64.9365 16.6758 64.2503 17.1019C63.5641 17.528 62.8064 17.741 61.9772 17.741H55.2007ZM55.5224 4.09917L59.2966 0L60.7763 1.5427L57.002 5.64187L55.5224 4.09917Z" fill="#4E55EE"/>
<path d="M69.7319 21.2011C71.0042 20.6428 71.9478 20.1873 72.5626 19.8347C73.1916 19.4821 73.6205 19.1515 73.8492 18.843C74.078 18.5344 74.1923 18.1671 74.1923 17.741H72.7984C71.9407 17.741 71.1544 17.5427 70.4395 17.146C69.7247 16.7493 69.1529 16.2057 68.724 15.5152C68.3094 14.8099 68.1021 14.0239 68.1021 13.157C68.1021 12.2755 68.3094 11.4674 68.724 10.7328C69.1529 9.99816 69.7247 9.41782 70.4395 8.99174C71.1544 8.55097 71.9407 8.33058 72.7984 8.33058C73.6276 8.33058 74.3853 8.55097 75.0716 8.99174C75.7578 9.41782 76.2939 9.99816 76.6799 10.7328C77.0659 11.4674 77.2589 12.2755 77.2589 13.157V16.3747C77.2589 17.741 77.0516 18.843 76.637 19.6804C76.2367 20.5326 75.5791 21.2672 74.6641 21.8843C73.7634 22.5161 72.441 23.2213 70.6969 24L69.7319 21.2011ZM72.7984 14.6116H74.1923V13.135C74.1923 12.7089 74.0565 12.3563 73.7849 12.0771C73.5275 11.798 73.1987 11.6584 72.7984 11.6584C72.3839 11.6584 72.0336 11.798 71.7477 12.0771C71.476 12.3563 71.3402 12.7089 71.3402 13.135C71.3402 13.5611 71.476 13.9137 71.7477 14.1928C72.0336 14.472 72.3839 14.6116 72.7984 14.6116ZM77.1088 14.4132H78.1381C78.2811 14.4132 78.3526 14.4867 78.3526 14.6336V17.5207C78.3526 17.6676 78.2811 17.741 78.1381 17.741H77.1088V14.4132Z" fill="#4E55EE"/>
<path d="M78.1321 17.741C77.9891 17.741 77.9176 17.6676 77.9176 17.5207V14.6336C77.9176 14.4867 77.9891 14.4132 78.1321 14.4132H78.947C79.2186 14.4132 79.4474 14.3104 79.6332 14.1047C79.8334 13.899 79.9334 13.6566 79.9334 13.3774V2.88705H83V13.5758C83 14.3251 82.8213 15.023 82.4639 15.6694C82.1065 16.3012 81.6204 16.8081 81.0057 17.1901C80.3909 17.5574 79.7118 17.741 78.9684 17.741H78.1321Z" fill="#4E55EE"/>
</svg>
