<svg width="83" height="25" viewBox="0 0 83 25" fill="none" xmlns="http://www.w3.org/2000/svg">
<path d="M6.90514 22.3269C5.66135 22.3269 4.5105 22.0036 3.45257 21.3572C2.39464 20.7254 1.55115 19.8659 0.922114 18.7787C0.307371 17.6914 0 16.5087 0 15.2304V11.1092H3.08801V15.0541C3.08801 15.7594 3.25957 16.4132 3.60268 17.0156C3.94579 17.618 4.41042 18.0955 4.99657 18.4481C5.58272 18.8007 6.21891 18.977 6.90514 18.977C7.60566 18.977 8.24899 18.8007 8.83514 18.4481C9.43559 18.0955 9.90737 17.618 10.2505 17.0156C10.5936 16.4132 10.7651 15.7594 10.7651 15.0541V10.2277H13.8532V15.2304C13.8532 16.5087 13.5386 17.6914 12.9096 18.7787C12.2949 19.8659 11.4514 20.7254 10.3791 21.3572C9.32122 22.0036 8.16321 22.3269 6.90514 22.3269ZM5.46835 8.17811H8.2347V10.999H5.46835V8.17811Z" fill="#4E55EE"/>
<path d="M19.6542 18.4481C18.9108 18.4481 18.2318 18.2644 17.617 17.8971C17.0023 17.5151 16.5162 17.0082 16.1588 16.3765C15.8014 15.73 15.6227 15.0321 15.6227 14.2828V3.59408H18.7107V14.0844C18.7107 14.3783 18.8036 14.6281 18.9895 14.8338C19.1753 15.0248 19.404 15.1203 19.6757 15.1203H20.8551C20.9981 15.1203 21.0696 15.1937 21.0696 15.3406V18.2277C21.0696 18.3746 20.9981 18.4481 20.8551 18.4481H19.6542Z" fill="#4E55EE"/>
<path d="M20.6415 15.3406C20.6415 15.1937 20.713 15.1203 20.856 15.1203H22.2499C22.5358 15.1203 22.7717 15.0248 22.9575 14.8338C23.1434 14.6281 23.2363 14.3783 23.2363 14.0844V10.2277H26.3243V14.0844C26.3243 14.3783 26.4172 14.6281 26.6031 14.8338C26.7889 15.0248 27.0248 15.1203 27.3108 15.1203H28.7047C28.8476 15.1203 28.9191 15.1937 28.9191 15.3406V18.2277C28.9191 18.3746 28.8476 18.4481 28.7047 18.4481H27.3108C26.2528 18.4481 25.4094 18.0881 24.7803 17.3682C24.1227 18.0881 23.2792 18.4481 22.2499 18.4481H20.856C20.713 18.4481 20.6415 18.3746 20.6415 18.2277V15.3406ZM21.4779 5.4894H24.2228V8.31034H21.4779V5.4894ZM25.3379 5.4894H28.1042V8.31034H25.3379V5.4894Z" fill="#4E55EE"/>
<path d="M39.7102 18.4481C38.6237 18.4481 37.7802 18.0587 37.1798 17.28C36.5793 16.4866 36.2791 15.4876 36.2791 14.2828V10.2277H38.7452V14.0844C38.7452 14.3783 38.8381 14.6281 39.024 14.8338C39.2098 15.0248 39.4386 15.1203 39.7102 15.1203H40.4822V9.56654H43.5702V18.4481H39.7102ZM28.7092 18.4481C28.5662 18.4481 28.4947 18.3746 28.4947 18.2277V15.3406C28.4947 15.1937 28.5662 15.1203 28.7092 15.1203H29.6099C29.8958 15.1203 30.1317 15.0248 30.3175 14.8338C30.5177 14.6281 30.6177 14.3783 30.6177 14.0844V10.2277H33.0839V14.2828C33.0839 15.4876 32.7765 16.4866 32.1618 17.28C31.5613 18.0587 30.7107 18.4481 29.6099 18.4481H28.7092ZM34.6708 18.4922C33.5842 18.4922 32.7336 18.1028 32.1189 17.3241C31.5184 16.5307 31.2182 15.5316 31.2182 14.3269V10.2277H33.6843V14.1285C33.6843 14.4224 33.7772 14.6721 33.9631 14.8778C34.1489 15.0688 34.3848 15.1643 34.6708 15.1643C34.9567 15.1643 35.1926 15.0688 35.3784 14.8778C35.5643 14.6721 35.6572 14.4224 35.6572 14.1285V10.2277H38.1233V14.3269C38.1233 15.5316 37.816 16.5307 37.2012 17.3241C36.6008 18.1028 35.7573 18.4922 34.6708 18.4922Z" fill="#4E55EE"/>
<path d="M46.8005 21.9081C48.0729 21.3498 49.0164 20.8944 49.6312 20.5417C50.2602 20.1891 50.6891 19.8585 50.9178 19.55C51.1466 19.2415 51.2609 18.8742 51.2609 18.4481H49.867C49.0093 18.4481 48.223 18.2497 47.5081 17.853C46.7933 17.4563 46.2215 16.9127 45.7926 16.2222C45.378 15.5169 45.1707 14.7309 45.1707 13.8641C45.1707 12.9825 45.378 12.1744 45.7926 11.4398C46.2215 10.7052 46.7933 10.1248 47.5081 9.69877C48.223 9.258 49.0093 9.03761 49.867 9.03761C50.6962 9.03761 51.4539 9.258 52.1402 9.69877C52.8264 10.1248 53.3625 10.7052 53.7485 11.4398C54.1345 12.1744 54.3275 12.9825 54.3275 13.8641V17.0817C54.3275 18.4481 54.1202 19.55 53.7056 20.3875C53.3053 21.2396 52.6477 21.9742 51.7327 22.5913C50.8321 23.2231 49.5096 23.9283 47.7655 24.707L46.8005 21.9081ZM49.867 15.3186H51.2609V13.842C51.2609 13.4159 51.1251 13.0633 50.8535 12.7842C50.5962 12.505 50.2673 12.3654 49.867 12.3654C49.4525 12.3654 49.1022 12.505 48.8163 12.7842C48.5446 13.0633 48.4088 13.4159 48.4088 13.842C48.4088 14.2681 48.5446 14.6207 48.8163 14.8999C49.1022 15.179 49.4525 15.3186 49.867 15.3186ZM54.1774 15.1203H55.2067C55.3497 15.1203 55.4212 15.1937 55.4212 15.3406V18.2277C55.4212 18.3746 55.3497 18.4481 55.2067 18.4481H54.1774V15.1203Z" fill="#4E55EE"/>
<path d="M55.2007 18.4481C55.0577 18.4481 54.9863 18.3746 54.9863 18.2277V15.3406C54.9863 15.1937 55.0577 15.1203 55.2007 15.1203H62.0201C62.4061 15.1203 62.7349 14.988 63.0065 14.7236C63.2781 14.4591 63.414 14.1065 63.414 13.6657C63.414 13.1368 63.1709 12.7181 62.6848 12.4095L57.8169 9.12576V6.72356L62.1058 2.05138L64.2074 4.10097L61.0336 7.51695L64.5934 9.91915C65.1938 10.3158 65.6585 10.8521 65.9873 11.528C66.3304 12.1891 66.502 12.9237 66.502 13.7318C66.502 14.584 66.2947 15.37 65.8801 16.09C65.4798 16.8099 64.9365 17.3829 64.2503 17.809C63.5641 18.235 62.8064 18.4481 61.9772 18.4481H55.2007ZM55.5224 4.80621L59.2966 0.707031L60.7763 2.24973L57.002 6.34891L55.5224 4.80621Z" fill="#4E55EE"/>
<path d="M69.7319 21.9081C71.0042 21.3498 71.9478 20.8944 72.5626 20.5417C73.1916 20.1891 73.6205 19.8585 73.8492 19.55C74.078 19.2415 74.1923 18.8742 74.1923 18.4481H72.7984C71.9407 18.4481 71.1544 18.2497 70.4395 17.853C69.7247 17.4563 69.1529 16.9127 68.724 16.2222C68.3094 15.5169 68.1021 14.7309 68.1021 13.8641C68.1021 12.9825 68.3094 12.1744 68.724 11.4398C69.1529 10.7052 69.7247 10.1248 70.4395 9.69877C71.1544 9.258 71.9407 9.03761 72.7984 9.03761C73.6276 9.03761 74.3853 9.258 75.0716 9.69877C75.7578 10.1248 76.2939 10.7052 76.6799 11.4398C77.0659 12.1744 77.2589 12.9825 77.2589 13.8641V17.0817C77.2589 18.4481 77.0516 19.55 76.637 20.3875C76.2367 21.2396 75.5791 21.9742 74.6641 22.5913C73.7634 23.2231 72.441 23.9283 70.6969 24.707L69.7319 21.9081ZM72.7984 15.3186H74.1923V13.842C74.1923 13.4159 74.0565 13.0633 73.7849 12.7842C73.5275 12.505 73.1987 12.3654 72.7984 12.3654C72.3839 12.3654 72.0336 12.505 71.7477 12.7842C71.476 13.0633 71.3402 13.4159 71.3402 13.842C71.3402 14.2681 71.476 14.6207 71.7477 14.8999C72.0336 15.179 72.3839 15.3186 72.7984 15.3186ZM77.1088 15.1203H78.1381C78.2811 15.1203 78.3526 15.1937 78.3526 15.3406V18.2277C78.3526 18.3746 78.2811 18.4481 78.1381 18.4481H77.1088V15.1203Z" fill="#4E55EE"/>
<path d="M78.1321 18.4481C77.9891 18.4481 77.9176 18.3746 77.9176 18.2277V15.3406C77.9176 15.1937 77.9891 15.1203 78.1321 15.1203H78.947C79.2186 15.1203 79.4474 15.0174 79.6332 14.8117C79.8334 14.606 79.9334 14.3636 79.9334 14.0844V3.59408H83V14.2828C83 15.0321 82.8213 15.73 82.4639 16.3765C82.1065 17.0082 81.6204 17.5151 81.0057 17.8971C80.3909 18.2644 79.7118 18.4481 78.9684 18.4481H78.1321Z" fill="#4E55EE"/>
</svg>
