<svg width="308" height="166" viewBox="0 0 308 166" fill="none" xmlns="http://www.w3.org/2000/svg">
<rect x="0.5" y="0.5" width="307" height="165" rx="23.5" fill="#F7FBFD"/>
<rect x="128" y="20" width="52" height="52" rx="26" fill="white"/>
<path d="M154 51.8335C158.272 51.8335 162.009 53.671 164.042 56.4127L161.893 57.4288C160.238 55.4688 157.322 54.1668 154 54.1668C150.679 54.1668 147.762 55.4688 146.108 57.4288L143.96 56.4115C145.992 53.6698 149.728 51.8335 154 51.8335ZM154 34.3335C155.547 34.3335 157.031 34.9481 158.125 36.042C159.219 37.136 159.833 38.6197 159.833 40.1668V43.6668C159.833 45.17 159.253 46.6152 158.213 47.7009C157.174 48.7866 155.755 49.4291 154.253 49.4943L154 49.5002C152.453 49.5002 150.969 48.8856 149.875 47.7916C148.781 46.6977 148.167 45.2139 148.167 43.6668V40.1668C148.167 38.6636 148.747 37.2185 149.787 36.1328C150.826 35.047 152.245 34.4046 153.747 34.3393L154 34.3335ZM154 36.6668C153.107 36.6668 152.248 37.0079 151.599 37.6203C150.949 38.2328 150.558 39.0703 150.506 39.9615L150.5 40.1668V43.6668C150.499 44.5779 150.854 45.4534 151.488 46.1073C152.122 46.7612 152.987 47.142 153.897 47.1687C154.808 47.1954 155.693 46.866 156.365 46.2505C157.036 45.6349 157.442 44.7817 157.494 43.8722L157.5 43.6668V40.1668C157.5 39.2386 157.131 38.3483 156.475 37.692C155.819 37.0356 154.928 36.6668 154 36.6668Z" fill="url(#paint0_linear_965_38276)"/>
<path d="M115.884 91.128C116.748 91.128 117.42 90.9787 117.9 90.68C118.39 90.3813 118.635 89.992 118.635 89.512C118.635 89.288 118.577 89.112 118.46 88.984C118.342 88.8453 118.134 88.776 117.836 88.776H115.084V85.72C115.084 85.304 115.148 84.9253 115.276 84.584C115.404 84.232 115.585 83.9333 115.82 83.688C116.065 83.432 116.358 83.2347 116.7 83.096C117.041 82.9573 117.425 82.888 117.852 82.888H119.692L119.772 84.648H117.82C117.51 84.648 117.249 84.744 117.036 84.936C116.822 85.1173 116.716 85.3947 116.716 85.768V87.032H118.124C118.54 87.032 118.881 87.0853 119.148 87.192C119.425 87.2987 119.644 87.448 119.804 87.64C119.964 87.832 120.076 88.0613 120.14 88.328C120.214 88.5947 120.252 88.8933 120.252 89.224C120.252 89.736 120.145 90.216 119.932 90.664C119.729 91.112 119.441 91.496 119.068 91.816C118.694 92.1467 118.252 92.4027 117.74 92.584C117.238 92.776 116.694 92.872 116.108 92.872H114.716C113.521 92.872 112.593 92.504 111.932 91.768C111.27 91.032 110.94 90.024 110.94 88.744V85.88H112.556V88.68C112.556 89.0533 112.598 89.3893 112.684 89.688C112.769 89.9867 112.902 90.2427 113.084 90.456C113.276 90.6693 113.521 90.8347 113.82 90.952C114.129 91.0693 114.502 91.128 114.94 91.128H115.884ZM124.821 86.216C124.821 86.5573 124.928 86.8133 125.141 86.984C125.354 87.1547 125.621 87.24 125.941 87.24H126.117C126.352 87.24 126.469 87.5227 126.469 88.088C126.469 88.696 126.352 89 126.117 89H125.941C125.728 89 125.509 88.968 125.285 88.904C125.072 88.8293 124.89 88.6853 124.741 88.472V88.744C124.741 89.32 124.645 89.8587 124.453 90.36C124.261 90.8613 123.994 91.2987 123.653 91.672C123.322 92.0453 122.922 92.3387 122.453 92.552C121.994 92.7653 121.493 92.872 120.949 92.872H120.549L120.421 91.128H120.677C121.125 91.128 121.509 91.0587 121.829 90.92C122.149 90.792 122.405 90.616 122.597 90.392C122.8 90.168 122.949 89.912 123.045 89.624C123.141 89.336 123.189 89.0427 123.189 88.744V84.312H124.821V86.216ZM126.109 89C125.971 89 125.88 88.9307 125.837 88.792C125.784 88.6427 125.757 88.4293 125.757 88.152C125.757 87.8427 125.784 87.6133 125.837 87.464C125.88 87.3147 125.971 87.24 126.109 87.24H129.789C130.504 87.24 130.861 86.8933 130.861 86.2V84.312H132.493V86.312C132.493 87.1973 132.264 87.8693 131.805 88.328C131.357 88.776 130.728 89 129.917 89H126.109ZM129.213 92.424H127.405V90.792H129.213V92.424ZM131.952 91.128H132.192C132.64 91.128 133.024 91.0587 133.345 90.92C133.665 90.792 133.921 90.616 134.113 90.392C134.315 90.168 134.465 89.912 134.561 89.624C134.657 89.336 134.705 89.0427 134.705 88.744V84.312H136.337V88.744C136.337 89.32 136.235 89.8587 136.033 90.36C135.841 90.8613 135.569 91.2987 135.217 91.672C134.875 92.0453 134.465 92.3387 133.985 92.552C133.515 92.7653 133.008 92.872 132.464 92.872H132.048L131.952 91.128ZM140.42 89C140.121 89 139.833 88.9627 139.556 88.888C139.289 88.8027 139.055 88.664 138.852 88.472C138.649 88.28 138.489 88.0293 138.372 87.72C138.255 87.4 138.196 87.0053 138.196 86.536V79.08H139.828V86.136C139.828 86.4773 139.903 86.7493 140.052 86.952C140.212 87.144 140.447 87.24 140.756 87.24H141.124C141.359 87.24 141.476 87.5227 141.476 88.088C141.476 88.696 141.359 89 141.124 89H140.42ZM145.093 87.24C145.381 87.24 145.578 87.1813 145.685 87.064C145.802 86.9467 145.861 86.8027 145.861 86.632C145.861 86.472 145.829 86.3173 145.765 86.168C145.712 86.008 145.589 85.8373 145.397 85.656L142.373 82.632V80.808L147.669 78.808L148.037 80.44L143.957 81.944L146.309 84.328C146.576 84.5947 146.794 84.84 146.965 85.064C147.136 85.2773 147.269 85.4853 147.365 85.688C147.461 85.88 147.525 86.0773 147.557 86.28C147.6 86.472 147.621 86.6747 147.621 86.888C147.621 87.2613 147.557 87.5813 147.429 87.848C147.312 88.1147 147.146 88.3333 146.933 88.504C146.73 88.6747 146.485 88.8027 146.197 88.888C145.92 88.9627 145.616 89 145.285 89H141.125C140.986 89 140.896 88.9307 140.853 88.792C140.8 88.6427 140.773 88.4293 140.773 88.152C140.773 87.8427 140.8 87.6133 140.853 87.464C140.896 87.3147 140.986 87.24 141.125 87.24H145.093ZM153.999 89C153.562 89 153.183 88.936 152.863 88.808C152.554 88.6693 152.298 88.488 152.095 88.264C151.903 88.04 151.759 87.7787 151.663 87.48C151.578 87.1813 151.535 86.8667 151.535 86.536V84.264H153.167V86.12C153.167 86.472 153.242 86.7493 153.391 86.952C153.551 87.144 153.876 87.24 154.367 87.24H159.391C159.775 87.24 160.047 87.1547 160.207 86.984C160.378 86.8027 160.463 86.5413 160.463 86.2V84.312H162.095V86.584C162.095 86.9893 162.026 87.3467 161.887 87.656C161.748 87.9547 161.562 88.2053 161.327 88.408C161.103 88.6 160.842 88.7493 160.543 88.856C160.255 88.952 159.956 89 159.647 89H153.999ZM158.783 83.016H157.119V81.448H158.783V83.016ZM156.495 83.016H154.831V81.448H156.495V83.016ZM166.186 89C165.887 89 165.599 88.9627 165.322 88.888C165.055 88.8027 164.82 88.664 164.618 88.472C164.415 88.28 164.255 88.0293 164.138 87.72C164.02 87.4 163.962 87.0053 163.962 86.536V79.08H165.594V86.136C165.594 86.4773 165.668 86.7493 165.818 86.952C165.978 87.144 166.212 87.24 166.522 87.24H166.89C167.124 87.24 167.242 87.5227 167.242 88.088C167.242 88.696 167.124 89 166.89 89H166.186ZM168.539 87.24C168.389 87.016 168.283 86.7813 168.219 86.536C168.165 86.2907 168.139 86.072 168.139 85.88C168.139 85.464 168.208 85.0747 168.347 84.712C168.485 84.3493 168.683 84.0347 168.939 83.768C169.195 83.5013 169.499 83.2933 169.851 83.144C170.213 82.984 170.608 82.904 171.035 82.904C171.429 82.904 171.803 82.968 172.155 83.096C172.507 83.2133 172.885 83.4053 173.291 83.672L172.587 85.08C172.267 84.9307 171.989 84.824 171.755 84.76C171.52 84.696 171.28 84.664 171.035 84.664C170.651 84.664 170.341 84.792 170.107 85.048C169.883 85.2933 169.771 85.576 169.771 85.896C169.771 86.3013 169.904 86.6267 170.171 86.872C170.448 87.1173 170.779 87.24 171.163 87.24H173.627L173.547 89H166.891C166.752 89 166.661 88.9307 166.619 88.792C166.565 88.6427 166.539 88.4293 166.539 88.152C166.539 87.8427 166.565 87.6133 166.619 87.464C166.661 87.3147 166.752 87.24 166.891 87.24H168.539ZM175.383 89V79.08H177.015V87.24H178.439C179.154 87.24 179.511 86.8933 179.511 86.2V79.08H181.143V86.2C181.143 86.5733 181.261 86.84 181.495 87C181.73 87.16 182.013 87.24 182.343 87.24H182.567C182.802 87.24 182.919 87.5227 182.919 88.088C182.919 88.696 182.802 89 182.567 89H182.263C181.869 89 181.501 88.936 181.159 88.808C180.829 88.6693 180.541 88.3973 180.295 87.992C180.029 88.3973 179.741 88.6693 179.431 88.808C179.122 88.936 178.791 89 178.439 89H175.383ZM183.923 79.08H185.555V83.496C185.555 83.784 185.549 84.072 185.539 84.36C185.539 84.6373 185.523 84.9093 185.491 85.176C185.981 84.472 186.456 83.944 186.915 83.592C187.373 83.24 187.843 83.0373 188.323 82.984C188.493 82.9627 188.659 82.9627 188.819 82.984C188.979 83.0053 189.133 83.032 189.283 83.064C189.923 83.2133 190.424 83.56 190.786 84.104C191.149 84.648 191.331 85.288 191.331 86.024C191.331 86.3973 191.272 86.76 191.155 87.112C191.048 87.464 190.877 87.784 190.642 88.072C190.408 88.3493 190.109 88.5733 189.747 88.744C189.384 88.9147 188.952 89 188.451 89H182.562C182.424 89 182.333 88.9307 182.29 88.792C182.237 88.6427 182.21 88.4293 182.21 88.152C182.21 87.8427 182.237 87.6133 182.29 87.464C182.333 87.3147 182.424 87.24 182.562 87.24H183.923V79.08ZM189.715 86.024C189.715 85.6933 189.603 85.3947 189.379 85.128C189.155 84.8507 188.835 84.712 188.419 84.712C188.227 84.712 188.029 84.7547 187.827 84.84C187.635 84.9253 187.427 85.0693 187.203 85.272C186.979 85.4747 186.733 85.736 186.467 86.056C186.2 86.376 185.896 86.7707 185.555 87.24H188.531C188.872 87.24 189.155 87.1387 189.379 86.936C189.603 86.7227 189.715 86.4187 189.715 86.024ZM193.102 79.08H194.734V89H193.102V79.08Z" fill="#15171A"/>
<rect x="91.5" y="113" width="125" height="33" rx="16.5" fill="url(#paint1_linear_965_38276)"/>
<path d="M117.985 127.957L117.043 127.015L110.833 133.224V134.167H111.776L117.985 127.957ZM118.928 127.015L119.871 126.072L118.928 125.129L117.985 126.072L118.928 127.015ZM112.328 135.5H109.5V132.671L118.457 123.715C118.582 123.59 118.751 123.52 118.928 123.52C119.105 123.52 119.274 123.59 119.399 123.715L121.285 125.601C121.41 125.726 121.481 125.895 121.481 126.072C121.481 126.249 121.41 126.418 121.285 126.543L112.329 135.5H112.328Z" fill="white"/>
<path d="M133.972 132C133.644 132 133.36 131.952 133.12 131.856C132.888 131.752 132.696 131.616 132.544 131.448C132.4 131.28 132.292 131.084 132.22 130.86C132.156 130.636 132.124 130.4 132.124 130.152V128.448H133.348V129.84C133.348 130.104 133.404 130.312 133.516 130.464C133.636 130.608 133.88 130.68 134.248 130.68H138.016C138.304 130.68 138.508 130.616 138.628 130.488C138.756 130.352 138.82 130.156 138.82 129.9V128.484H140.044V130.188C140.044 130.492 139.992 130.76 139.888 130.992C139.784 131.216 139.644 131.404 139.468 131.556C139.3 131.7 139.104 131.812 138.88 131.892C138.664 131.964 138.44 132 138.208 132H133.972ZM137.56 127.512H136.312V126.336H137.56V127.512ZM135.844 127.512H134.596V126.336H135.844V127.512ZM143.112 132C142.888 132 142.672 131.972 142.464 131.916C142.264 131.852 142.088 131.748 141.936 131.604C141.784 131.46 141.664 131.272 141.576 131.04C141.488 130.8 141.444 130.504 141.444 130.152V124.56H142.668V129.852C142.668 130.108 142.724 130.312 142.836 130.464C142.956 130.608 143.132 130.68 143.364 130.68H143.64C143.816 130.68 143.904 130.892 143.904 131.316C143.904 131.772 143.816 132 143.64 132H143.112ZM144.877 130.68C144.765 130.512 144.685 130.336 144.637 130.152C144.597 129.968 144.577 129.804 144.577 129.66C144.577 129.348 144.629 129.056 144.733 128.784C144.837 128.512 144.985 128.276 145.177 128.076C145.369 127.876 145.597 127.72 145.861 127.608C146.133 127.488 146.429 127.428 146.749 127.428C147.045 127.428 147.325 127.476 147.589 127.572C147.853 127.66 148.137 127.804 148.441 128.004L147.913 129.06C147.673 128.948 147.465 128.868 147.289 128.82C147.113 128.772 146.933 128.748 146.749 128.748C146.461 128.748 146.229 128.844 146.053 129.036C145.885 129.22 145.801 129.432 145.801 129.672C145.801 129.976 145.901 130.22 146.101 130.404C146.309 130.588 146.557 130.68 146.845 130.68H148.693L148.633 132H143.641C143.537 132 143.469 131.948 143.437 131.844C143.397 131.732 143.377 131.572 143.377 131.364C143.377 131.132 143.397 130.96 143.437 130.848C143.469 130.736 143.537 130.68 143.641 130.68H144.877ZM150.01 132V124.56H151.234V130.68H152.302C152.838 130.68 153.106 130.42 153.106 129.9V124.56H154.33V129.9C154.33 130.18 154.418 130.38 154.594 130.5C154.77 130.62 154.982 130.68 155.23 130.68H155.398C155.574 130.68 155.662 130.892 155.662 131.316C155.662 131.772 155.574 132 155.398 132H155.17C154.874 132 154.598 131.952 154.342 131.856C154.094 131.752 153.878 131.548 153.694 131.244C153.494 131.548 153.278 131.752 153.046 131.856C152.814 131.952 152.566 132 152.302 132H150.01ZM156.415 124.56H157.639V127.872C157.639 128.088 157.635 128.304 157.627 128.52C157.627 128.728 157.615 128.932 157.591 129.132C157.959 128.604 158.315 128.208 158.659 127.944C159.003 127.68 159.355 127.528 159.715 127.488C159.843 127.472 159.967 127.472 160.087 127.488C160.207 127.504 160.323 127.524 160.435 127.548C160.915 127.66 161.291 127.92 161.563 128.328C161.835 128.736 161.971 129.216 161.971 129.768C161.971 130.048 161.927 130.32 161.839 130.584C161.759 130.848 161.631 131.088 161.455 131.304C161.279 131.512 161.055 131.68 160.783 131.808C160.511 131.936 160.187 132 159.811 132H155.395C155.291 132 155.223 131.948 155.191 131.844C155.151 131.732 155.131 131.572 155.131 131.364C155.131 131.132 155.151 130.96 155.191 130.848C155.223 130.736 155.291 130.68 155.395 130.68H156.415V124.56ZM160.759 129.768C160.759 129.52 160.675 129.296 160.507 129.096C160.339 128.888 160.099 128.784 159.787 128.784C159.643 128.784 159.495 128.816 159.343 128.88C159.199 128.944 159.043 129.052 158.875 129.204C158.707 129.356 158.523 129.552 158.323 129.792C158.123 130.032 157.895 130.328 157.639 130.68H159.871C160.127 130.68 160.339 130.604 160.507 130.452C160.675 130.292 160.759 130.064 160.759 129.768ZM163.299 124.56H164.523V132H163.299V124.56ZM174.125 129.912C174.125 130.168 174.205 130.36 174.365 130.488C174.533 130.616 174.741 130.68 174.989 130.68C175.589 130.68 175.889 130.42 175.889 129.9V128.484H177.101V129.9C177.101 130.18 177.173 130.38 177.317 130.5C177.469 130.62 177.645 130.68 177.845 130.68C178.349 130.68 178.601 130.42 178.601 129.9V128.484H179.825V129.9C179.825 130.18 179.909 130.38 180.077 130.5C180.253 130.62 180.449 130.68 180.665 130.68H180.941C181.045 130.68 181.113 130.736 181.145 130.848C181.185 130.952 181.205 131.108 181.205 131.316C181.205 131.548 181.185 131.72 181.145 131.832C181.113 131.944 181.045 132 180.941 132H180.665C180.361 132 180.081 131.952 179.825 131.856C179.577 131.752 179.365 131.548 179.189 131.244C178.997 131.548 178.777 131.752 178.529 131.856C178.289 131.952 178.061 132 177.845 132C177.573 132 177.321 131.952 177.089 131.856C176.857 131.752 176.649 131.548 176.465 131.244C176.273 131.548 176.049 131.752 175.793 131.856C175.545 131.952 175.293 132 175.037 132C174.813 132 174.621 131.968 174.461 131.904C174.309 131.832 174.181 131.74 174.077 131.628V131.808C174.077 132.216 174.009 132.608 173.873 132.984C173.737 133.36 173.541 133.688 173.285 133.968C173.037 134.256 172.729 134.484 172.361 134.652C171.993 134.82 171.581 134.904 171.125 134.904H170.369C169.473 134.904 168.777 134.628 168.281 134.076C167.785 133.524 167.537 132.768 167.537 131.808V129.66H168.749V131.76C168.749 132.04 168.781 132.292 168.845 132.516C168.909 132.74 169.009 132.932 169.145 133.092C169.289 133.252 169.473 133.376 169.697 133.464C169.929 133.552 170.209 133.596 170.537 133.596H171.065C171.401 133.596 171.685 133.544 171.917 133.44C172.157 133.344 172.349 133.208 172.493 133.032C172.645 132.864 172.753 132.664 172.817 132.432C172.881 132.208 172.913 131.968 172.913 131.712V128.484H174.125V129.912ZM177.113 125.4H175.841V124.236H177.113V125.4ZM177.953 127.08H176.705V125.904H177.953V127.08ZM176.237 127.08H174.989V125.904H176.237V127.08ZM182.045 130.68C182.581 130.68 182.849 130.42 182.849 129.9V128.484H184.073V129.984C184.073 130.648 183.905 131.152 183.569 131.496C183.233 131.832 182.761 132 182.153 132H180.941C180.837 132 180.769 131.948 180.737 131.844C180.697 131.732 180.677 131.572 180.677 131.364C180.677 131.132 180.697 130.96 180.737 130.848C180.769 130.736 180.837 130.68 180.941 130.68H182.045ZM183.905 134.52H182.669V133.344H183.905V134.52ZM182.177 134.52H180.941V133.344H182.177V134.52ZM185.483 124.56H186.707V132H185.483V124.56ZM189.7 131.808C189.7 132.24 189.628 132.644 189.484 133.02C189.34 133.396 189.14 133.724 188.884 134.004C188.636 134.284 188.336 134.504 187.984 134.664C187.64 134.824 187.264 134.904 186.856 134.904H186.1L186.04 133.596H186.544C186.904 133.596 187.212 133.544 187.468 133.44C187.716 133.344 187.92 133.212 188.08 133.044C188.24 132.876 188.356 132.684 188.428 132.468C188.5 132.252 188.536 132.032 188.536 131.808V128.484H189.76V129.912C189.76 130.168 189.836 130.36 189.988 130.488C190.148 130.616 190.348 130.68 190.588 130.68H190.72C190.896 130.68 190.984 130.892 190.984 131.316C190.984 131.772 190.896 132 190.72 132H190.588C190.428 132 190.268 131.976 190.108 131.928C189.948 131.872 189.812 131.764 189.7 131.604V131.808ZM191.819 130.68C192.355 130.68 192.623 130.42 192.623 129.9V128.484H193.847V129.984C193.847 130.648 193.679 131.152 193.343 131.496C193.007 131.832 192.535 132 191.927 132H190.715C190.611 132 190.543 131.948 190.511 131.844C190.471 131.732 190.451 131.572 190.451 131.364C190.451 131.132 190.471 130.96 190.511 130.848C190.543 130.736 190.611 130.68 190.715 130.68H191.819ZM193.679 134.52H192.443V133.344H193.679V134.52ZM191.951 134.52H190.715V133.344H191.951V134.52ZM196.216 133.596C196.52 133.596 196.78 133.552 196.996 133.464C197.22 133.384 197.404 133.272 197.548 133.128C197.692 132.984 197.804 132.812 197.884 132.612C197.964 132.42 198.012 132.216 198.028 132H197.212C196.796 132 196.456 131.956 196.192 131.868C195.928 131.78 195.72 131.652 195.568 131.484C195.416 131.308 195.308 131.096 195.244 130.848C195.188 130.6 195.16 130.32 195.16 130.008C195.16 129.696 195.204 129.404 195.292 129.132C195.38 128.852 195.508 128.608 195.676 128.4C195.852 128.192 196.068 128.028 196.324 127.908C196.58 127.78 196.876 127.716 197.212 127.716C197.484 127.716 197.74 127.76 197.98 127.848C198.228 127.936 198.444 128.076 198.628 128.268C198.812 128.46 198.956 128.708 199.06 129.012C199.172 129.316 199.228 129.688 199.228 130.128V131.808C199.228 132.216 199.16 132.608 199.024 132.984C198.888 133.36 198.692 133.688 198.436 133.968C198.188 134.256 197.88 134.484 197.512 134.652C197.144 134.82 196.732 134.904 196.276 134.904H195.064L194.992 133.596H196.216ZM196.336 129.924C196.336 130.204 196.396 130.4 196.516 130.512C196.644 130.624 196.892 130.68 197.26 130.68H198.052V130.116C198.052 129.7 197.972 129.408 197.812 129.24C197.66 129.072 197.444 128.988 197.164 128.988C196.9 128.988 196.696 129.068 196.552 129.228C196.408 129.388 196.336 129.62 196.336 129.924Z" fill="white"/>
<rect x="0.5" y="0.5" width="307" height="165" rx="23.5" stroke="url(#paint2_linear_965_38276)"/>
<defs>
<linearGradient id="paint0_linear_965_38276" x1="164.042" y1="57.4288" x2="144.988" y2="57.4288" gradientUnits="userSpaceOnUse">
<stop stop-color="#0038FF"/>
<stop offset="1" stop-color="#356EFF"/>
</linearGradient>
<linearGradient id="paint1_linear_965_38276" x1="216.5" y1="146" x2="97.8976" y2="146" gradientUnits="userSpaceOnUse">
<stop stop-color="#0038FF"/>
<stop offset="1" stop-color="#356EFF"/>
</linearGradient>
<linearGradient id="paint2_linear_965_38276" x1="308" y1="166" x2="15.7638" y2="166" gradientUnits="userSpaceOnUse">
<stop stop-color="#0038FF"/>
<stop offset="1" stop-color="#356EFF"/>
</linearGradient>
</defs>
</svg>
