<svg width="238" height="34" viewBox="0 0 238 34" fill="none" xmlns="http://www.w3.org/2000/svg">
<g filter="url(#filter0_b_789_12013)">
<mask id="mask0_789_12013" style="mask-type:alpha" maskUnits="userSpaceOnUse" x="0" y="0" width="238" height="34">
<path d="M0.212891 17.0022H4.39613V23.8291C4.39613 24.7006 4.706 25.4462 5.32574 26.0659C5.94548 26.705 6.6911 27.0246 7.56261 27.0246H14.3023C14.709 27.0246 15.0479 26.8793 15.319 26.5888C15.6095 26.2983 15.7548 25.9594 15.7548 25.5721C15.7548 25.1847 15.6095 24.8458 15.319 24.5553C15.0479 24.2842 14.709 24.1486 14.3023 24.1486H8.75367V20.5464H14.2151C15.9194 20.5464 17.3235 21.0015 18.4274 21.9117C19.5313 22.8026 20.0833 24.0227 20.0833 25.5721C20.0833 26.6373 19.8218 27.6153 19.2989 28.5062C18.776 29.397 18.0691 30.1039 17.1783 30.6268C16.2874 31.1497 15.2997 31.4112 14.2151 31.4112H7.56261C6.2263 31.4112 4.9965 31.0819 3.87323 30.4235C2.74995 29.765 1.85907 28.8741 1.2006 27.7508C0.542127 26.6276 0.212891 25.3978 0.212891 24.0615V17.0022ZM8.28887 24.1486V19.762H21.1872C21.3809 19.762 21.4777 19.8589 21.4777 20.0525V23.8581C21.4777 24.0518 21.3809 24.1486 21.1872 24.1486H8.28887Z" fill="#4E55EE"/>
<path d="M21.1749 24.1486C20.9813 24.1486 20.8844 24.0518 20.8844 23.8581V20.0525C20.8844 19.8589 20.9813 19.762 21.1749 19.762H22.7437C23.1116 19.762 23.4215 19.6265 23.6733 19.3553C23.9444 19.0842 24.08 18.7646 24.08 18.3967V12.4413H28.2342V18.6581C28.2342 19.6458 27.9921 20.5657 27.5079 21.4179C27.0237 22.2507 26.3653 22.9188 25.5325 23.4224C24.6997 23.9065 23.7798 24.1486 22.7727 24.1486H21.1749ZM21.1459 26.6179H24.8934V30.3363H21.1459V26.6179Z" fill="#4E55EE"/>
<path d="M30.227 5.73074H34.4103V24.1486H30.227V5.73074ZM26.1891 3.17431C26.1891 2.28344 26.4796 1.57655 27.0606 1.05364C27.6222 0.51137 28.3194 0.240234 29.1522 0.240234H36.5019V3.40671H29.7041C29.4717 3.40671 29.2878 3.4745 29.1522 3.61007C29.0166 3.72627 28.9488 3.91025 28.9488 4.16202V5.55643H26.1891V3.17431Z" fill="#4E55EE"/>
<path d="M49.1805 30.6849C47.8442 30.6849 46.6144 30.3557 45.4912 29.6972C44.3679 29.0387 43.477 28.1479 42.8185 27.0246C42.1601 25.9013 41.8308 24.6715 41.8308 23.3352V16.276H46.0141V23.1028C46.0141 23.9743 46.3239 24.7199 46.9437 25.3397C47.5634 25.9788 48.309 26.2983 49.1805 26.2983H55.8331C56.2979 26.2983 56.6755 26.1434 56.966 25.8335C57.2565 25.543 57.4018 25.1654 57.4018 24.7006C57.4018 24.352 57.2952 24.0324 57.0822 23.7419C56.8692 23.4514 56.5787 23.2674 56.2107 23.19L48.7157 21.476V17.6704C48.7157 16.5665 48.9966 15.54 49.5582 14.5911C50.1392 13.6227 50.9139 12.8577 51.8822 12.2961C52.8699 11.7345 53.9254 11.4536 55.0487 11.4536H60.452V15.6078H54.9906C54.429 15.6078 53.9351 15.8209 53.509 16.2469C53.1023 16.6536 52.899 17.1378 52.899 17.6994V18.1643C53.9835 18.3967 54.7485 18.571 55.194 18.6872C55.6588 18.784 56.0558 18.8711 56.385 18.9486L57.547 19.2101C58.7671 19.578 59.7645 20.2849 60.5392 21.3307C61.3139 22.3765 61.7012 23.5482 61.7012 24.8458C61.7012 25.911 61.4398 26.889 60.9169 27.7799C60.3939 28.6708 59.6774 29.3777 58.7671 29.9006C57.8763 30.4235 56.8982 30.6849 55.8331 30.6849H49.1805Z" fill="#4E55EE"/>
<path d="M69.5623 24.1486C68.5552 24.1486 67.6353 23.9065 66.8025 23.4224C65.9697 22.9188 65.3112 22.2507 64.8271 21.4179C64.3429 20.5657 64.1008 19.6458 64.1008 18.6581V4.56873H68.284V18.3967C68.284 18.784 68.4099 19.1132 68.6617 19.3844C68.9135 19.6361 69.2233 19.762 69.5913 19.762H71.1891C71.3827 19.762 71.4796 19.8589 71.4796 20.0525V23.8581C71.4796 24.0518 71.3827 24.1486 71.1891 24.1486H69.5623Z" fill="#4E55EE"/>
<path d="M80.0505 19.762C80.5928 19.762 81.0383 19.5684 81.3869 19.181C81.7548 18.7937 81.9388 18.3579 81.9388 17.8738C81.9388 17.3896 81.7645 16.9538 81.4159 16.5665C81.0673 16.1792 80.6122 15.9855 80.0505 15.9855C79.4889 15.9855 79.0338 16.1695 78.6852 16.5374C78.3366 16.9054 78.1623 17.3508 78.1623 17.8738C78.1623 18.4548 78.3463 18.9196 78.7142 19.2682C79.1016 19.5974 79.547 19.762 80.0505 19.762H86.645C87.2066 19.762 87.6714 19.5877 88.0394 19.2391C88.4267 18.8711 88.6204 18.416 88.6204 17.8738C88.6204 17.3315 88.4267 16.886 88.0394 16.5374C87.6714 16.1695 87.2066 15.9855 86.645 15.9855H72.4394V11.8313H86.645C87.807 11.8313 88.8721 12.0927 89.8405 12.6157C90.8088 13.1386 91.5738 13.8648 92.1355 14.7944C92.7165 15.7047 93.007 16.7311 93.007 17.8738C93.007 19.0164 92.7165 20.0719 92.1355 21.0402C91.5545 21.9892 90.7701 22.7445 89.7824 23.3062C88.814 23.8678 87.7682 24.1486 86.645 24.1486H79.8181C78.5787 24.1486 77.5135 23.8387 76.6226 23.219C75.7317 22.5799 75.0539 21.7762 74.5891 20.8078C74.1243 19.8395 73.8919 18.8615 73.8919 17.8738C73.8919 16.9829 74.1533 16.092 74.6762 15.2011C75.1992 14.3103 75.9254 13.584 76.855 13.0224C77.804 12.4414 78.8692 12.1508 80.0505 12.1508C81.4643 12.1508 82.5779 12.5188 83.3913 13.2548C84.2047 13.9713 84.7664 14.7751 85.0762 15.6659C85.3861 16.5568 85.541 17.2927 85.541 17.8738C85.541 19.2682 85.2505 20.4399 84.6695 21.3888C84.1079 22.3184 83.3816 23.0157 82.4908 23.4805C81.6193 23.9259 80.7284 24.1486 79.8181 24.1486H71.1321L71.1902 19.762H80.0505Z" fill="#4E55EE"/>
<path d="M102.803 33.3866C101.505 33.3866 100.295 33.0574 99.1715 32.3989C98.0676 31.7404 97.1864 30.8495 96.528 29.7263C95.8888 28.6224 95.5693 27.4313 95.5693 26.1531C95.5693 25.0685 95.8017 24.0324 96.2665 23.0447C96.7507 22.057 97.4188 21.2145 98.271 20.5173L105.737 15.0268L102.629 13.5453C102.319 13.3903 102.038 13.3129 101.786 13.3129C101.302 13.3129 100.837 13.5162 100.392 13.9229L98.2129 16.276L95.3078 13.7486L97.5157 11.105C98.0579 10.4466 98.697 9.96239 99.433 9.65252C100.188 9.34265 100.963 9.18772 101.757 9.18772C102.629 9.18772 103.461 9.40075 104.255 9.82683L110.53 12.7609C110.685 12.7996 110.83 12.819 110.966 12.819H113.639V16.9151H110.123L101.147 23.5095C100.353 24.1486 99.9559 25.0008 99.9559 26.0659C99.9559 26.9374 100.266 27.6831 100.885 28.3028C101.525 28.9225 102.27 29.2324 103.122 29.2324H111.547V33.3866H102.803ZM105.475 22.7832H109.194V26.5017H105.475V22.7832Z" fill="#4E55EE"/>
<path d="M118.025 28.7095C119.748 27.9736 121.027 27.3732 121.859 26.9084C122.711 26.4436 123.292 26.0078 123.602 25.6011C123.912 25.1944 124.067 24.7102 124.067 24.1486H122.179C121.017 24.1486 119.952 23.8872 118.983 23.3643C118.015 22.8413 117.24 22.1248 116.659 21.2145C116.098 20.2849 115.817 19.2488 115.817 18.1062C115.817 16.9441 116.098 15.879 116.659 14.9106C117.24 13.9423 118.015 13.1773 118.983 12.6157C119.952 12.0346 121.017 11.7441 122.179 11.7441C123.302 11.7441 124.329 12.0346 125.258 12.6157C126.188 13.1773 126.914 13.9423 127.437 14.9106C127.96 15.879 128.221 16.9441 128.221 18.1062V22.3475C128.221 24.1486 127.941 25.6011 127.379 26.705C126.837 27.8283 125.946 28.7967 124.706 29.6101C123.486 30.4428 121.695 31.3724 119.332 32.3989L118.025 28.7095ZM122.179 20.0235H124.067V18.0771C124.067 17.5155 123.883 17.0507 123.515 16.6827C123.167 16.3147 122.721 16.1307 122.179 16.1307C121.617 16.1307 121.143 16.3147 120.755 16.6827C120.387 17.0507 120.203 17.5155 120.203 18.0771C120.203 18.6387 120.387 19.1035 120.755 19.4715C121.143 19.8395 121.617 20.0235 122.179 20.0235ZM128.018 19.762H129.412C129.606 19.762 129.703 19.8589 129.703 20.0525V23.8581C129.703 24.0518 129.606 24.1486 129.412 24.1486H128.018V19.762Z" fill="#4E55EE"/>
<path d="M138.7 24.2067C137.558 24.2067 136.522 23.9259 135.592 23.3643C134.682 22.7832 133.965 22.0086 133.442 21.0402C132.919 20.0719 132.658 19.0067 132.658 17.8447V15.9564H130.857V11.8022H138.7C139.862 11.8022 140.928 12.0637 141.896 12.5866C142.864 13.1095 143.629 13.8358 144.191 14.7654C144.772 15.6756 145.062 16.7021 145.062 17.8447C145.062 18.9873 144.772 20.0525 144.191 21.0402C143.629 22.0086 142.855 22.7832 141.867 23.3643C140.898 23.9259 139.843 24.2067 138.7 24.2067ZM129.404 24.1486C129.211 24.1486 129.114 24.0518 129.114 23.8581V20.0525C129.114 19.8589 129.211 19.762 129.404 19.762H131.322C131.69 19.762 131.999 19.6361 132.251 19.3844C132.522 19.1132 132.658 18.784 132.658 18.3967V16.5374H135.999V18.6581C135.999 20.2462 135.582 21.5631 134.749 22.6089C133.936 23.6354 132.793 24.1486 131.322 24.1486H129.404ZM138.7 19.8201C139.262 19.8201 139.727 19.6361 140.095 19.2682C140.463 18.8808 140.647 18.4063 140.647 17.8447C140.647 17.3024 140.463 16.857 140.095 16.5084C139.727 16.1404 139.262 15.9564 138.7 15.9564H136.783V17.8447C136.783 18.4063 136.957 18.8808 137.306 19.2682C137.674 19.6361 138.139 19.8201 138.7 19.8201Z" fill="#4E55EE"/>
<path d="M161.656 29.2615C159.971 29.2615 158.412 28.8354 156.978 27.9832C155.545 27.1505 154.403 26.0175 153.55 24.5844C152.718 23.1512 152.301 21.5922 152.301 19.9073V14.4749H156.485V19.6749C156.485 20.6045 156.717 21.4663 157.182 22.2603C157.647 23.0544 158.276 23.6838 159.07 24.1486C159.864 24.6134 160.726 24.8458 161.656 24.8458C162.604 24.8458 163.476 24.6134 164.27 24.1486C165.083 23.6838 165.723 23.0544 166.187 22.2603C166.652 21.4663 166.885 20.6045 166.885 19.6749V13.3129H170.923V19.9073C170.923 21.5922 170.506 23.1512 169.673 24.5844C168.86 26.0175 167.746 27.1505 166.333 27.9832C164.919 28.8354 163.36 29.2615 161.656 29.2615ZM159.709 10.6112H163.457V14.3296H159.709V10.6112ZM172.433 24.1486C171 24.1486 170.003 23.6644 169.441 22.6961C168.899 21.7084 168.628 20.3624 168.628 18.6581V13.3129H171.097V18.3967C171.097 18.784 171.223 19.1132 171.475 19.3844C171.746 19.6361 172.065 19.762 172.433 19.762H173.682C173.876 19.762 173.973 19.8589 173.973 20.0525V23.8581C173.973 24.0518 173.876 24.1486 173.682 24.1486H172.433Z" fill="#4E55EE"/>
<path d="M173.398 20.0525C173.398 19.8589 173.495 19.762 173.689 19.762H175.577C175.965 19.762 176.284 19.6361 176.536 19.3844C176.788 19.1132 176.913 18.784 176.913 18.3967V13.3129H181.097V18.3967C181.097 18.784 181.223 19.1132 181.474 19.3844C181.726 19.6361 182.046 19.762 182.433 19.762H184.321C184.515 19.762 184.612 19.8589 184.612 20.0525V23.8581C184.612 24.0518 184.515 24.1486 184.321 24.1486H182.433C181 24.1486 179.857 23.6741 179.005 22.7251C178.114 23.6741 176.972 24.1486 175.577 24.1486H173.689C173.495 24.1486 173.398 24.0518 173.398 23.8581V20.0525ZM174.502 26.6469H178.221V30.3654H174.502V26.6469ZM179.731 26.6469H183.479V30.3654H179.731V26.6469Z" fill="#4E55EE"/>
<path d="M193.624 24.2067C192.481 24.2067 191.445 23.9259 190.515 23.3643C189.605 22.7832 188.888 22.0086 188.365 21.0402C187.843 20.0719 187.581 19.0067 187.581 17.8447V15.9564H185.78V11.8022H193.624C194.786 11.8022 195.851 12.0637 196.819 12.5866C197.787 13.1095 198.552 13.8358 199.114 14.7654C199.695 15.6756 199.986 16.7021 199.986 17.8447C199.986 18.9873 199.695 20.0525 199.114 21.0402C198.552 22.0086 197.778 22.7832 196.79 23.3643C195.822 23.9259 194.766 24.2067 193.624 24.2067ZM184.327 24.1486C184.134 24.1486 184.037 24.0518 184.037 23.8581V20.0525C184.037 19.8589 184.134 19.762 184.327 19.762H186.245C186.613 19.762 186.923 19.6361 187.174 19.3844C187.446 19.1132 187.581 18.784 187.581 18.3967V16.5374H190.922V18.6581C190.922 20.2462 190.505 21.5631 189.673 22.6089C188.859 23.6354 187.717 24.1486 186.245 24.1486H184.327ZM193.624 19.8201C194.185 19.8201 194.65 19.6361 195.018 19.2682C195.386 18.8808 195.57 18.4063 195.57 17.8447C195.57 17.3024 195.386 16.857 195.018 16.5084C194.65 16.1404 194.185 15.9564 193.624 15.9564H191.706V17.8447C191.706 18.4063 191.881 18.8808 192.229 19.2682C192.597 19.6361 193.062 19.8201 193.624 19.8201Z" fill="#4E55EE"/>
<path d="M198 28.8838C199.375 28.0898 200.353 27.4507 200.934 26.9665C201.515 26.4823 201.902 25.9594 202.096 25.3978C202.29 24.8361 202.386 24.0227 202.386 22.9576V13.3129H206.57V22.9576C206.57 24.5844 206.366 25.9207 205.96 26.9665C205.553 28.0123 204.856 28.9419 203.868 29.7553C202.88 30.5881 201.447 31.4693 199.569 32.3989L198 28.8838ZM202.619 7.0961H206.337V10.8145H202.619V7.0961Z" fill="#4E55EE"/>
<path d="M206.833 29.3486C207.859 28.5352 208.595 27.838 209.041 27.257C209.506 26.676 209.806 26.0853 209.941 25.4849C210.077 24.8846 210.145 24.0421 210.145 22.9576V13.3129H214.299V22.9576C214.299 24.5263 214.144 25.8142 213.834 26.8212C213.544 27.8283 213.04 28.7482 212.324 29.581C211.607 30.4138 210.551 31.3531 209.157 32.3989L206.833 29.3486ZM215.635 24.1486C214.183 24.1486 213.108 23.6451 212.411 22.638C211.733 21.6309 211.394 20.3043 211.394 18.6581V13.3129H214.299V18.3967C214.299 18.784 214.425 19.1132 214.677 19.3844C214.928 19.6361 215.248 19.762 215.635 19.762H216.884C217.078 19.762 217.175 19.8589 217.175 20.0525V23.8581C217.175 24.0518 217.078 24.1486 216.884 24.1486H215.635Z" fill="#4E55EE"/>
<path d="M231.798 24.1486C230.326 24.1486 229.184 23.6354 228.37 22.6089C227.557 21.5631 227.15 20.2462 227.15 18.6581V13.3129H230.491V18.3967C230.491 18.784 230.617 19.1132 230.869 19.3844C231.12 19.6361 231.43 19.762 231.798 19.762H232.844V12.4413H237.027V24.1486H231.798ZM216.896 24.1486C216.702 24.1486 216.605 24.0518 216.605 23.8581V20.0525C216.605 19.8589 216.702 19.762 216.896 19.762H218.116C218.503 19.762 218.823 19.6361 219.074 19.3844C219.345 19.1132 219.481 18.784 219.481 18.3967V13.3129H222.822V18.6581C222.822 20.2462 222.405 21.5631 221.573 22.6089C220.759 23.6354 219.607 24.1486 218.116 24.1486H216.896ZM224.971 24.2067C223.5 24.2067 222.347 23.6935 221.514 22.667C220.701 21.6212 220.294 20.3043 220.294 18.7162V13.3129H223.635V18.4548C223.635 18.8421 223.761 19.1713 224.013 19.4425C224.265 19.6942 224.584 19.8201 224.971 19.8201C225.359 19.8201 225.678 19.6942 225.93 19.4425C226.182 19.1713 226.308 18.8421 226.308 18.4548V13.3129H229.649V18.7162C229.649 20.3043 229.232 21.6212 228.399 22.667C227.586 23.6935 226.443 24.2067 224.971 24.2067Z" fill="#4E55EE"/>
</mask>
<g mask="url(#mask0_789_12013)">
<path d="M2.06195 46.4036C9.4337 83.2151 39.101 118.121 77.2295 118.121C109.112 118.121 146.623 100.255 139.506 64.3779C130.609 19.5316 186.894 36.2355 188.528 -11.5159C190.162 -59.2673 113.724 -25.3155 70.1485 -48.3736C23.6374 -72.9852 -7.82843 -2.98482 2.06195 46.4036Z" fill="#2F82FF"/>
<path d="M51.4487 46.4036C58.8204 83.2151 88.4878 118.121 126.616 118.121C158.499 118.121 196.01 100.255 188.893 64.3779C179.996 19.5316 236.281 36.2355 237.915 -11.5159C239.549 -59.2673 163.111 -25.3155 119.535 -48.3736C73.0241 -72.9852 41.5583 -2.98482 51.4487 46.4036Z" fill="#FFBD5A"/>
<path d="M107.007 46.4036C114.379 83.2151 144.046 118.121 182.175 118.121C214.058 118.121 251.569 100.255 244.451 64.3779C235.555 19.5316 291.84 36.2355 293.474 -11.5159C295.108 -59.2673 218.669 -25.3155 175.094 -48.3736C128.583 -72.9852 97.1169 -2.98482 107.007 46.4036Z" fill="#FF3F3F"/>
<path d="M173.46 46.4036C180.832 83.2151 210.499 118.121 248.628 118.121C280.511 118.121 318.022 100.255 310.904 64.3779C302.008 19.5316 358.293 36.2355 359.927 -11.5159C361.561 -59.2673 285.122 -25.3155 241.547 -48.3736C195.036 -72.9852 163.57 -2.98482 173.46 46.4036Z" fill="#A35BFF"/>
</g>
</g>
<defs>
<filter id="filter0_b_789_12013" x="-7.02234" y="-7.02234" width="251.312" height="47.6716" filterUnits="userSpaceOnUse" color-interpolation-filters="sRGB">
<feFlood flood-opacity="0" result="BackgroundImageFix"/>
<feGaussianBlur in="BackgroundImageFix" stdDeviation="3.63128"/>
<feComposite in2="SourceAlpha" operator="in" result="effect1_backgroundBlur_789_12013"/>
<feBlend mode="normal" in="SourceGraphic" in2="effect1_backgroundBlur_789_12013" result="shape"/>
</filter>
</defs>
</svg>
