<svg width="238" height="34" viewBox="0 0 238 34" fill="none" xmlns="http://www.w3.org/2000/svg">
<g filter="url(#filter0_b_1761_39145)">
<mask id="mask0_1761_39145" style="mask-type:alpha" maskUnits="userSpaceOnUse" x="0" y="0" width="238" height="34">
<path d="M0.212891 17.2395H4.39613V24.0664C4.39613 24.9379 4.706 25.6835 5.32574 26.3032C5.94548 26.9423 6.6911 27.2619 7.56261 27.2619H14.3023C14.709 27.2619 15.0479 27.1166 15.319 26.8261C15.6095 26.5356 15.7548 26.1967 15.7548 25.8094C15.7548 25.422 15.6095 25.0831 15.319 24.7926C15.0479 24.5215 14.709 24.3859 14.3023 24.3859H8.75367V20.7837H14.2151C15.9194 20.7837 17.3235 21.2388 18.4274 22.149C19.5313 23.0399 20.0833 24.26 20.0833 25.8094C20.0833 26.8746 19.8218 27.8526 19.2989 28.7435C18.776 29.6343 18.0691 30.3412 17.1783 30.8641C16.2874 31.387 15.2997 31.6485 14.2151 31.6485H7.56261C6.2263 31.6485 4.9965 31.3192 3.87323 30.6608C2.74995 30.0023 1.85907 29.1114 1.2006 27.9881C0.542127 26.8649 0.212891 25.6351 0.212891 24.2988V17.2395ZM8.28887 24.3859V19.9993H21.1872C21.3809 19.9993 21.4777 20.0962 21.4777 20.2898V24.0954C21.4777 24.2891 21.3809 24.3859 21.1872 24.3859H8.28887Z" fill="#4E55EE"/>
<path d="M21.1749 24.3859C20.9813 24.3859 20.8844 24.2891 20.8844 24.0954V20.2898C20.8844 20.0962 20.9813 19.9993 21.1749 19.9993H22.7437C23.1116 19.9993 23.4215 19.8638 23.6733 19.5926C23.9444 19.3215 24.08 19.0019 24.08 18.634V12.6787H28.2342V18.8954C28.2342 19.8831 27.9921 20.8031 27.5079 21.6552C27.0237 22.488 26.3653 23.1561 25.5325 23.6597C24.6997 24.1438 23.7798 24.3859 22.7727 24.3859H21.1749ZM21.1459 26.8552H24.8934V30.5736H21.1459V26.8552Z" fill="#4E55EE"/>
<path d="M30.227 5.96804H34.4103V24.3859H30.227V5.96804ZM26.1891 3.41161C26.1891 2.52074 26.4796 1.81385 27.0606 1.29095C27.6222 0.748674 28.3194 0.477539 29.1522 0.477539H36.5019V3.64402H29.7041C29.4717 3.64402 29.2878 3.7118 29.1522 3.84737C29.0166 3.96357 28.9488 4.14756 28.9488 4.39933V5.79374H26.1891V3.41161Z" fill="#4E55EE"/>
<path d="M49.1805 30.9222C47.8442 30.9222 46.6144 30.593 45.4912 29.9345C44.3679 29.276 43.477 28.3852 42.8185 27.2619C42.1601 26.1386 41.8308 24.9088 41.8308 23.5725V16.5133H46.0141V23.3401C46.0141 24.2116 46.3239 24.9572 46.9437 25.577C47.5634 26.2161 48.309 26.5356 49.1805 26.5356H55.8331C56.2979 26.5356 56.6755 26.3807 56.966 26.0708C57.2565 25.7803 57.4018 25.4027 57.4018 24.9379C57.4018 24.5893 57.2952 24.2697 57.0822 23.9792C56.8692 23.6887 56.5787 23.5047 56.2107 23.4273L48.7157 21.7133V17.9077C48.7157 16.8038 48.9966 15.7774 49.5582 14.8284C50.1392 13.86 50.9139 13.095 51.8822 12.5334C52.8699 11.9718 53.9254 11.6909 55.0487 11.6909H60.452V15.8451H54.9906C54.429 15.8451 53.9351 16.0582 53.509 16.4842C53.1023 16.8909 52.899 17.3751 52.899 17.9368V18.4016C53.9835 18.634 54.7485 18.8083 55.194 18.9245C55.6588 19.0213 56.0558 19.1084 56.385 19.1859L57.547 19.4474C58.7671 19.8153 59.7645 20.5222 60.5392 21.568C61.3139 22.6138 61.7012 23.7855 61.7012 25.0831C61.7012 26.1483 61.4398 27.1263 60.9169 28.0172C60.3939 28.9081 59.6774 29.615 58.7671 30.1379C57.8763 30.6608 56.8982 30.9222 55.8331 30.9222H49.1805Z" fill="#4E55EE"/>
<path d="M69.5623 24.3859C68.5552 24.3859 67.6353 24.1438 66.8025 23.6597C65.9697 23.1561 65.3112 22.488 64.8271 21.6552C64.3429 20.8031 64.1008 19.8831 64.1008 18.8954V4.80603H68.284V18.634C68.284 19.0213 68.4099 19.3505 68.6617 19.6217C68.9135 19.8734 69.2233 19.9993 69.5913 19.9993H71.1891C71.3827 19.9993 71.4796 20.0962 71.4796 20.2898V24.0954C71.4796 24.2891 71.3827 24.3859 71.1891 24.3859H69.5623Z" fill="#4E55EE"/>
<path d="M80.0505 19.9993C80.5928 19.9993 81.0383 19.8057 81.3869 19.4183C81.7548 19.031 81.9388 18.5952 81.9388 18.1111C81.9388 17.6269 81.7645 17.1911 81.4159 16.8038C81.0673 16.4165 80.6122 16.2228 80.0505 16.2228C79.4889 16.2228 79.0338 16.4068 78.6852 16.7747C78.3366 17.1427 78.1623 17.5882 78.1623 18.1111C78.1623 18.6921 78.3463 19.1569 78.7142 19.5055C79.1016 19.8347 79.547 19.9993 80.0505 19.9993H86.645C87.2066 19.9993 87.6714 19.825 88.0394 19.4764C88.4267 19.1084 88.6204 18.6533 88.6204 18.1111C88.6204 17.5688 88.4267 17.1233 88.0394 16.7747C87.6714 16.4068 87.2066 16.2228 86.645 16.2228H72.4394V12.0686H86.645C87.807 12.0686 88.8721 12.3301 89.8405 12.853C90.8088 13.3759 91.5738 14.1021 92.1355 15.0317C92.7165 15.942 93.007 16.9684 93.007 18.1111C93.007 19.2537 92.7165 20.3092 92.1355 21.2775C91.5545 22.2265 90.7701 22.9818 89.7824 23.5435C88.814 24.1051 87.7682 24.3859 86.645 24.3859H79.8181C78.5787 24.3859 77.5135 24.076 76.6226 23.4563C75.7317 22.8172 75.0539 22.0135 74.5891 21.0451C74.1243 20.0768 73.8919 19.0988 73.8919 18.1111C73.8919 17.2202 74.1533 16.3293 74.6762 15.4384C75.1992 14.5476 75.9254 13.8213 76.855 13.2597C77.804 12.6787 78.8692 12.3882 80.0505 12.3882C81.4643 12.3882 82.5779 12.7561 83.3913 13.4921C84.2047 14.2086 84.7664 15.0124 85.0762 15.9032C85.3861 16.7941 85.541 17.5301 85.541 18.1111C85.541 19.5055 85.2505 20.6772 84.6695 21.6261C84.1079 22.5557 83.3816 23.253 82.4908 23.7178C81.6193 24.1632 80.7284 24.3859 79.8181 24.3859H71.1321L71.1902 19.9993H80.0505Z" fill="#4E55EE"/>
<path d="M102.803 33.6239C101.505 33.6239 100.295 33.2947 99.1715 32.6362C98.0676 31.9777 97.1864 31.0868 96.528 29.9636C95.8888 28.8597 95.5693 27.6686 95.5693 26.3904C95.5693 25.3058 95.8017 24.2697 96.2665 23.282C96.7507 22.2943 97.4188 21.4518 98.271 20.7546L105.737 15.2641L102.629 13.7826C102.319 13.6276 102.038 13.5502 101.786 13.5502C101.302 13.5502 100.837 13.7535 100.392 14.1602L98.2129 16.5133L95.3078 13.9859L97.5157 11.3423C98.0579 10.6839 98.697 10.1997 99.433 9.88983C100.188 9.57996 100.963 9.42502 101.757 9.42502C102.629 9.42502 103.461 9.63806 104.255 10.0641L110.53 12.9982C110.685 13.0369 110.83 13.0563 110.966 13.0563H113.639V17.1524H110.123L101.147 23.7468C100.353 24.3859 99.9559 25.2381 99.9559 26.3032C99.9559 27.1747 100.266 27.9204 100.885 28.5401C101.525 29.1598 102.27 29.4697 103.122 29.4697H111.547V33.6239H102.803ZM105.475 23.0206H109.194V26.739H105.475V23.0206Z" fill="#4E55EE"/>
<path d="M118.025 28.9468C119.748 28.2109 121.027 27.6105 121.859 27.1457C122.711 26.6809 123.292 26.2451 123.602 25.8384C123.912 25.4317 124.067 24.9476 124.067 24.3859H122.179C121.017 24.3859 119.952 24.1245 118.983 23.6016C118.015 23.0787 117.24 22.3621 116.659 21.4518C116.098 20.5222 115.817 19.4861 115.817 18.3435C115.817 17.1814 116.098 16.1163 116.659 15.1479C117.24 14.1796 118.015 13.4146 118.983 12.853C119.952 12.272 121.017 11.9814 122.179 11.9814C123.302 11.9814 124.329 12.272 125.258 12.853C126.188 13.4146 126.914 14.1796 127.437 15.1479C127.96 16.1163 128.221 17.1814 128.221 18.3435V22.5848C128.221 24.3859 127.941 25.8384 127.379 26.9423C126.837 28.0656 125.946 29.034 124.706 29.8474C123.486 30.6801 121.695 31.6098 119.332 32.6362L118.025 28.9468ZM122.179 20.2608H124.067V18.3144C124.067 17.7528 123.883 17.288 123.515 16.92C123.167 16.552 122.721 16.368 122.179 16.368C121.617 16.368 121.143 16.552 120.755 16.92C120.387 17.288 120.203 17.7528 120.203 18.3144C120.203 18.876 120.387 19.3409 120.755 19.7088C121.143 20.0768 121.617 20.2608 122.179 20.2608ZM128.018 19.9993H129.412C129.606 19.9993 129.703 20.0962 129.703 20.2898V24.0954C129.703 24.2891 129.606 24.3859 129.412 24.3859H128.018V19.9993Z" fill="#4E55EE"/>
<path d="M138.7 24.444C137.558 24.444 136.522 24.1632 135.592 23.6016C134.682 23.0206 133.965 22.2459 133.442 21.2775C132.919 20.3092 132.658 19.244 132.658 18.082V16.1937H130.857V12.0395H138.7C139.862 12.0395 140.928 12.301 141.896 12.8239C142.864 13.3468 143.629 14.0731 144.191 15.0027C144.772 15.9129 145.062 16.9394 145.062 18.082C145.062 19.2247 144.772 20.2898 144.191 21.2775C143.629 22.2459 142.855 23.0206 141.867 23.6016C140.898 24.1632 139.843 24.444 138.7 24.444ZM129.404 24.3859C129.211 24.3859 129.114 24.2891 129.114 24.0954V20.2898C129.114 20.0962 129.211 19.9993 129.404 19.9993H131.322C131.69 19.9993 131.999 19.8734 132.251 19.6217C132.522 19.3505 132.658 19.0213 132.658 18.634V16.7747H135.999V18.8954C135.999 20.4835 135.582 21.8004 134.749 22.8463C133.936 23.8727 132.793 24.3859 131.322 24.3859H129.404ZM138.7 20.0574C139.262 20.0574 139.727 19.8734 140.095 19.5055C140.463 19.1181 140.647 18.6436 140.647 18.082C140.647 17.5397 140.463 17.0943 140.095 16.7457C139.727 16.3777 139.262 16.1937 138.7 16.1937H136.783V18.082C136.783 18.6436 136.957 19.1181 137.306 19.5055C137.674 19.8734 138.139 20.0574 138.7 20.0574Z" fill="#4E55EE"/>
<path d="M161.656 29.4988C159.971 29.4988 158.412 29.0727 156.978 28.2206C155.545 27.3878 154.403 26.2548 153.55 24.8217C152.718 23.3885 152.301 21.8295 152.301 20.1446V14.7122H156.485V19.9122C156.485 20.8418 156.717 21.7036 157.182 22.4977C157.647 23.2917 158.276 23.9211 159.07 24.3859C159.864 24.8507 160.726 25.0831 161.656 25.0831C162.604 25.0831 163.476 24.8507 164.27 24.3859C165.083 23.9211 165.723 23.2917 166.187 22.4977C166.652 21.7036 166.885 20.8418 166.885 19.9122V13.5502H170.923V20.1446C170.923 21.8295 170.506 23.3885 169.673 24.8217C168.86 26.2548 167.746 27.3878 166.333 28.2206C164.919 29.0727 163.36 29.4988 161.656 29.4988ZM159.709 10.8485H163.457V14.5669H159.709V10.8485ZM172.433 24.3859C171 24.3859 170.003 23.9017 169.441 22.9334C168.899 21.9457 168.628 20.5997 168.628 18.8954V13.5502H171.097V18.634C171.097 19.0213 171.223 19.3505 171.475 19.6217C171.746 19.8734 172.065 19.9993 172.433 19.9993H173.682C173.876 19.9993 173.973 20.0962 173.973 20.2898V24.0954C173.973 24.2891 173.876 24.3859 173.682 24.3859H172.433Z" fill="#4E55EE"/>
<path d="M173.398 20.2898C173.398 20.0962 173.495 19.9993 173.689 19.9993H175.577C175.965 19.9993 176.284 19.8734 176.536 19.6217C176.788 19.3505 176.913 19.0213 176.913 18.634V13.5502H181.097V18.634C181.097 19.0213 181.223 19.3505 181.474 19.6217C181.726 19.8734 182.046 19.9993 182.433 19.9993H184.321C184.515 19.9993 184.612 20.0962 184.612 20.2898V24.0954C184.612 24.2891 184.515 24.3859 184.321 24.3859H182.433C181 24.3859 179.857 23.9114 179.005 22.9625C178.114 23.9114 176.972 24.3859 175.577 24.3859H173.689C173.495 24.3859 173.398 24.2891 173.398 24.0954V20.2898ZM174.502 26.8842H178.221V30.6027H174.502V26.8842ZM179.731 26.8842H183.479V30.6027H179.731V26.8842Z" fill="#4E55EE"/>
<path d="M193.624 24.444C192.481 24.444 191.445 24.1632 190.515 23.6016C189.605 23.0206 188.888 22.2459 188.365 21.2775C187.843 20.3092 187.581 19.244 187.581 18.082V16.1937H185.78V12.0395H193.624C194.786 12.0395 195.851 12.301 196.819 12.8239C197.787 13.3468 198.552 14.0731 199.114 15.0027C199.695 15.9129 199.986 16.9394 199.986 18.082C199.986 19.2247 199.695 20.2898 199.114 21.2775C198.552 22.2459 197.778 23.0206 196.79 23.6016C195.822 24.1632 194.766 24.444 193.624 24.444ZM184.327 24.3859C184.134 24.3859 184.037 24.2891 184.037 24.0954V20.2898C184.037 20.0962 184.134 19.9993 184.327 19.9993H186.245C186.613 19.9993 186.923 19.8734 187.174 19.6217C187.446 19.3505 187.581 19.0213 187.581 18.634V16.7747H190.922V18.8954C190.922 20.4835 190.505 21.8004 189.673 22.8463C188.859 23.8727 187.717 24.3859 186.245 24.3859H184.327ZM193.624 20.0574C194.185 20.0574 194.65 19.8734 195.018 19.5055C195.386 19.1181 195.57 18.6436 195.57 18.082C195.57 17.5397 195.386 17.0943 195.018 16.7457C194.65 16.3777 194.185 16.1937 193.624 16.1937H191.706V18.082C191.706 18.6436 191.881 19.1181 192.229 19.5055C192.597 19.8734 193.062 20.0574 193.624 20.0574Z" fill="#4E55EE"/>
<path d="M198 29.1211C199.375 28.3271 200.353 27.688 200.934 27.2038C201.515 26.7196 201.902 26.1967 202.096 25.6351C202.29 25.0734 202.386 24.26 202.386 23.1949V13.5502H206.57V23.1949C206.57 24.8217 206.366 26.158 205.96 27.2038C205.553 28.2496 204.856 29.1792 203.868 29.9926C202.88 30.8254 201.447 31.7066 199.569 32.6362L198 29.1211ZM202.619 7.3334H206.337V11.0518H202.619V7.3334Z" fill="#4E55EE"/>
<path d="M206.833 29.5859C207.859 28.7725 208.595 28.0753 209.041 27.4943C209.506 26.9133 209.806 26.3226 209.941 25.7222C210.077 25.1219 210.145 24.2794 210.145 23.1949V13.5502H214.299V23.1949C214.299 24.7636 214.144 26.0515 213.834 27.0585C213.544 28.0656 213.04 28.9855 212.324 29.8183C211.607 30.6511 210.551 31.5904 209.157 32.6362L206.833 29.5859ZM215.635 24.3859C214.183 24.3859 213.108 23.8824 212.411 22.8753C211.733 21.8682 211.394 20.5416 211.394 18.8954V13.5502H214.299V18.634C214.299 19.0213 214.425 19.3505 214.677 19.6217C214.928 19.8734 215.248 19.9993 215.635 19.9993H216.884C217.078 19.9993 217.175 20.0962 217.175 20.2898V24.0954C217.175 24.2891 217.078 24.3859 216.884 24.3859H215.635Z" fill="#4E55EE"/>
<path d="M231.798 24.3859C230.326 24.3859 229.184 23.8727 228.37 22.8463C227.557 21.8004 227.15 20.4835 227.15 18.8954V13.5502H230.491V18.634C230.491 19.0213 230.617 19.3505 230.869 19.6217C231.12 19.8734 231.43 19.9993 231.798 19.9993H232.844V12.6787H237.027V24.3859H231.798ZM216.896 24.3859C216.702 24.3859 216.605 24.2891 216.605 24.0954V20.2898C216.605 20.0962 216.702 19.9993 216.896 19.9993H218.116C218.503 19.9993 218.823 19.8734 219.074 19.6217C219.345 19.3505 219.481 19.0213 219.481 18.634V13.5502H222.822V18.8954C222.822 20.4835 222.405 21.8004 221.573 22.8463C220.759 23.8727 219.607 24.3859 218.116 24.3859H216.896ZM224.971 24.444C223.5 24.444 222.347 23.9308 221.514 22.9044C220.701 21.8585 220.294 20.5416 220.294 18.9535V13.5502H223.635V18.6921C223.635 19.0794 223.761 19.4086 224.013 19.6798C224.265 19.9315 224.584 20.0574 224.971 20.0574C225.359 20.0574 225.678 19.9315 225.93 19.6798C226.182 19.4086 226.308 19.0794 226.308 18.6921V13.5502H229.649V18.9535C229.649 20.5416 229.232 21.8585 228.399 22.9044C227.586 23.9308 226.443 24.444 224.971 24.444Z" fill="#4E55EE"/>
</mask>
<g mask="url(#mask0_1761_39145)">
<path d="M2.06195 46.6409C9.4337 83.4524 39.101 118.359 77.2295 118.359C109.112 118.359 146.623 100.492 139.506 64.6152C130.609 19.7689 186.894 36.4728 188.528 -11.2786C190.162 -59.03 113.724 -25.0782 70.1485 -48.1363C23.6374 -72.7479 -7.82843 -2.74751 2.06195 46.6409Z" fill="#2F82FF"/>
<path d="M51.4487 46.6409C58.8204 83.4524 88.4878 118.359 126.616 118.359C158.499 118.359 196.01 100.492 188.893 64.6152C179.996 19.7689 236.281 36.4728 237.915 -11.2786C239.549 -59.03 163.111 -25.0782 119.535 -48.1363C73.0241 -72.7479 41.5583 -2.74751 51.4487 46.6409Z" fill="#FFBD5A"/>
<path d="M107.007 46.6409C114.379 83.4524 144.046 118.359 182.175 118.359C214.058 118.359 251.569 100.492 244.451 64.6152C235.555 19.7689 291.84 36.4728 293.474 -11.2786C295.108 -59.03 218.669 -25.0782 175.094 -48.1363C128.583 -72.7479 97.1169 -2.74751 107.007 46.6409Z" fill="#FF3F3F"/>
<path d="M173.46 46.6409C180.832 83.4524 210.499 118.359 248.628 118.359C280.511 118.359 318.022 100.492 310.904 64.6152C302.008 19.7689 358.293 36.4728 359.927 -11.2786C361.561 -59.03 285.122 -25.0782 241.547 -48.1363C195.036 -72.7479 163.57 -2.74751 173.46 46.6409Z" fill="#A35BFF"/>
</g>
</g>
<defs>
<filter id="filter0_b_1761_39145" x="-7.02234" y="-6.78503" width="251.312" height="47.6716" filterUnits="userSpaceOnUse" color-interpolation-filters="sRGB">
<feFlood flood-opacity="0" result="BackgroundImageFix"/>
<feGaussianBlur in="BackgroundImageFix" stdDeviation="3.63128"/>
<feComposite in2="SourceAlpha" operator="in" result="effect1_backgroundBlur_1761_39145"/>
<feBlend mode="normal" in="SourceGraphic" in2="effect1_backgroundBlur_1761_39145" result="shape"/>
</filter>
</defs>
</svg>
