<svg width="238" height="34" viewBox="0 0 238 34" fill="none" xmlns="http://www.w3.org/2000/svg">
<g filter="url(#filter0_b_789_11997)">
<mask id="mask0_789_11997" style="mask-type:alpha" maskUnits="userSpaceOnUse" x="0" y="0" width="238" height="34">
<path d="M0.212891 17.5257H4.39613V24.3525C4.39613 25.224 4.706 25.9696 5.32574 26.5894C5.94548 27.2285 6.6911 27.548 7.56261 27.548H14.3023C14.709 27.548 15.0479 27.4028 15.319 27.1123C15.6095 26.8218 15.7548 26.4828 15.7548 26.0955C15.7548 25.7082 15.6095 25.3693 15.319 25.0788C15.0479 24.8076 14.709 24.672 14.3023 24.672H8.75367V21.0698H14.2151C15.9194 21.0698 17.3235 21.5249 18.4274 22.4352C19.5313 23.3261 20.0833 24.5462 20.0833 26.0955C20.0833 27.1607 19.8218 28.1387 19.2989 29.0296C18.776 29.9205 18.0691 30.6274 17.1783 31.1503C16.2874 31.6732 15.2997 31.9346 14.2151 31.9346H7.56261C6.2263 31.9346 4.9965 31.6054 3.87323 30.9469C2.74995 30.2884 1.85907 29.3976 1.2006 28.2743C0.542127 27.151 0.212891 25.9212 0.212891 24.5849V17.5257ZM8.28887 24.672V20.2855H21.1872C21.3809 20.2855 21.4777 20.3823 21.4777 20.576V24.3815C21.4777 24.5752 21.3809 24.672 21.1872 24.672H8.28887Z" fill="#4E55EE"/>
<path d="M21.1749 24.672C20.9813 24.672 20.8844 24.5752 20.8844 24.3815V20.576C20.8844 20.3823 20.9813 20.2855 21.1749 20.2855H22.7437C23.1116 20.2855 23.4215 20.1499 23.6733 19.8788C23.9444 19.6076 24.08 19.2881 24.08 18.9201V12.9648H28.2342V19.1815C28.2342 20.1693 27.9921 21.0892 27.5079 21.9413C27.0237 22.7741 26.3653 23.4423 25.5325 23.9458C24.6997 24.43 23.7798 24.672 22.7727 24.672H21.1749ZM21.1459 27.1413H24.8934V30.8598H21.1459V27.1413Z" fill="#4E55EE"/>
<path d="M30.227 6.25417H34.4103V24.672H30.227V6.25417ZM26.1891 3.69775C26.1891 2.80687 26.4796 2.09998 27.0606 1.57708C27.6222 1.03481 28.3194 0.763672 29.1522 0.763672H36.5019V3.93015H29.7041C29.4717 3.93015 29.2878 3.99794 29.1522 4.1335C29.0166 4.2497 28.9488 4.43369 28.9488 4.68546V6.07987H26.1891V3.69775Z" fill="#4E55EE"/>
<path d="M49.1805 31.2084C47.8442 31.2084 46.6144 30.8791 45.4912 30.2206C44.3679 29.5622 43.477 28.6713 42.8185 27.548C42.1601 26.4247 41.8308 25.195 41.8308 23.8586V16.7994H46.0141V23.6262C46.0141 24.4977 46.3239 25.2434 46.9437 25.8631C47.5634 26.5022 48.309 26.8218 49.1805 26.8218H55.8331C56.2979 26.8218 56.6755 26.6668 56.966 26.357C57.2565 26.0665 57.4018 25.6888 57.4018 25.224C57.4018 24.8754 57.2952 24.5558 57.0822 24.2653C56.8692 23.9748 56.5787 23.7909 56.2107 23.7134L48.7157 21.9994V18.1938C48.7157 17.0899 48.9966 16.0635 49.5582 15.1145C50.1392 14.1462 50.9139 13.3812 51.8822 12.8195C52.8699 12.2579 53.9254 11.9771 55.0487 11.9771H60.452V16.1313H54.9906C54.429 16.1313 53.9351 16.3443 53.509 16.7704C53.1023 17.1771 52.899 17.6612 52.899 18.2229V18.6877C53.9835 18.9201 54.7485 19.0944 55.194 19.2106C55.6588 19.3074 56.0558 19.3946 56.385 19.472L57.547 19.7335C58.7671 20.1015 59.7645 20.8084 60.5392 21.8542C61.3139 22.9 61.7012 24.0717 61.7012 25.3693C61.7012 26.4344 61.4398 27.4125 60.9169 28.3033C60.3939 29.1942 59.6774 29.9011 58.7671 30.424C57.8763 30.9469 56.8982 31.2084 55.8331 31.2084H49.1805Z" fill="#4E55EE"/>
<path d="M69.5623 24.672C68.5552 24.672 67.6353 24.43 66.8025 23.9458C65.9697 23.4423 65.3112 22.7741 64.8271 21.9413C64.3429 21.0892 64.1008 20.1693 64.1008 19.1815V5.09216H68.284V18.9201C68.284 19.3074 68.4099 19.6367 68.6617 19.9078C68.9135 20.1596 69.2233 20.2855 69.5913 20.2855H71.1891C71.3827 20.2855 71.4796 20.3823 71.4796 20.576V24.3815C71.4796 24.5752 71.3827 24.672 71.1891 24.672H69.5623Z" fill="#4E55EE"/>
<path d="M80.0505 20.2855C80.5928 20.2855 81.0383 20.0918 81.3869 19.7045C81.7548 19.3171 81.9388 18.8814 81.9388 18.3972C81.9388 17.913 81.7645 17.4773 81.4159 17.0899C81.0673 16.7026 80.6122 16.5089 80.0505 16.5089C79.4889 16.5089 79.0338 16.6929 78.6852 17.0609C78.3366 17.4288 78.1623 17.8743 78.1623 18.3972C78.1623 18.9782 78.3463 19.443 78.7142 19.7916C79.1016 20.1208 79.547 20.2855 80.0505 20.2855H86.645C87.2066 20.2855 87.6714 20.1112 88.0394 19.7626C88.4267 19.3946 88.6204 18.9395 88.6204 18.3972C88.6204 17.8549 88.4267 17.4095 88.0394 17.0609C87.6714 16.6929 87.2066 16.5089 86.645 16.5089H72.4394V12.3547H86.645C87.807 12.3547 88.8721 12.6162 89.8405 13.1391C90.8088 13.662 91.5738 14.3883 92.1355 15.3179C92.7165 16.2281 93.007 17.2545 93.007 18.3972C93.007 19.5398 92.7165 20.5953 92.1355 21.5637C91.5545 22.5126 90.7701 23.268 89.7824 23.8296C88.814 24.3912 87.7682 24.672 86.645 24.672H79.8181C78.5787 24.672 77.5135 24.3622 76.6226 23.7424C75.7317 23.1033 75.0539 22.2996 74.5891 21.3313C74.1243 20.3629 73.8919 19.3849 73.8919 18.3972C73.8919 17.5063 74.1533 16.6154 74.6762 15.7246C75.1992 14.8337 75.9254 14.1074 76.855 13.5458C77.804 12.9648 78.8692 12.6743 80.0505 12.6743C81.4643 12.6743 82.5779 13.0423 83.3913 13.7782C84.2047 14.4948 84.7664 15.2985 85.0762 16.1894C85.3861 17.0802 85.541 17.8162 85.541 18.3972C85.541 19.7916 85.2505 20.9633 84.6695 21.9123C84.1079 22.8419 83.3816 23.5391 82.4908 24.0039C81.6193 24.4493 80.7284 24.672 79.8181 24.672H71.1321L71.1902 20.2855H80.0505Z" fill="#4E55EE"/>
<path d="M102.803 33.91C101.505 33.91 100.295 33.5808 99.1715 32.9223C98.0676 32.2639 97.1864 31.373 96.528 30.2497C95.8888 29.1458 95.5693 27.9547 95.5693 26.6765C95.5693 25.592 95.8017 24.5558 96.2665 23.5681C96.7507 22.5804 97.4188 21.738 98.271 21.0408L105.737 15.5503L102.629 14.0687C102.319 13.9138 102.038 13.8363 101.786 13.8363C101.302 13.8363 100.837 14.0396 100.392 14.4464L98.2129 16.7994L95.3078 14.2721L97.5157 11.6285C98.0579 10.97 98.697 10.4858 99.433 10.176C100.188 9.86609 100.963 9.71115 101.757 9.71115C102.629 9.71115 103.461 9.92419 104.255 10.3503L110.53 13.2843C110.685 13.3231 110.83 13.3424 110.966 13.3424H113.639V17.4385H110.123L101.147 24.0329C100.353 24.6721 99.9559 25.5242 99.9559 26.5894C99.9559 27.4609 100.266 28.2065 100.885 28.8262C101.525 29.446 102.27 29.7558 103.122 29.7558H111.547V33.91H102.803ZM105.475 23.3067H109.194V27.0251H105.475V23.3067Z" fill="#4E55EE"/>
<path d="M118.025 29.2329C119.748 28.497 121.027 27.8966 121.859 27.4318C122.711 26.967 123.292 26.5313 123.602 26.1246C123.912 25.7179 124.067 25.2337 124.067 24.672H122.179C121.017 24.672 119.952 24.4106 118.983 23.8877C118.015 23.3648 117.24 22.6482 116.659 21.738C116.098 20.8084 115.817 19.7722 115.817 18.6296C115.817 17.4676 116.098 16.4024 116.659 15.4341C117.24 14.4657 118.015 13.7007 118.983 13.1391C119.952 12.5581 121.017 12.2676 122.179 12.2676C123.302 12.2676 124.329 12.5581 125.258 13.1391C126.188 13.7007 126.914 14.4657 127.437 15.4341C127.96 16.4024 128.221 17.4676 128.221 18.6296V22.8709C128.221 24.6721 127.941 26.1246 127.379 27.2285C126.837 28.3518 125.946 29.3201 124.706 30.1335C123.486 30.9663 121.695 31.8959 119.332 32.9223L118.025 29.2329ZM122.179 20.5469H124.067V18.6005C124.067 18.0389 123.883 17.5741 123.515 17.2061C123.167 16.8382 122.721 16.6542 122.179 16.6542C121.617 16.6542 121.143 16.8382 120.755 17.2061C120.387 17.5741 120.203 18.0389 120.203 18.6005C120.203 19.1622 120.387 19.627 120.755 19.995C121.143 20.3629 121.617 20.5469 122.179 20.5469ZM128.018 20.2855H129.412C129.606 20.2855 129.703 20.3823 129.703 20.576V24.3815C129.703 24.5752 129.606 24.672 129.412 24.672H128.018V20.2855Z" fill="#4E55EE"/>
<path d="M138.7 24.7302C137.558 24.7302 136.522 24.4493 135.592 23.8877C134.682 23.3067 133.965 22.532 133.442 21.5637C132.919 20.5953 132.658 19.5301 132.658 18.3681V16.4799H130.857V12.3257H138.7C139.862 12.3257 140.928 12.5871 141.896 13.11C142.864 13.6329 143.629 14.3592 144.191 15.2888C144.772 16.1991 145.062 17.2255 145.062 18.3681C145.062 19.5108 144.772 20.576 144.191 21.5637C143.629 22.532 142.855 23.3067 141.867 23.8877C140.898 24.4493 139.843 24.7302 138.7 24.7302ZM129.404 24.672C129.211 24.672 129.114 24.5752 129.114 24.3815V20.576C129.114 20.3823 129.211 20.2855 129.404 20.2855H131.322C131.69 20.2855 131.999 20.1596 132.251 19.9078C132.522 19.6367 132.658 19.3074 132.658 18.9201V17.0609H135.999V19.1815C135.999 20.7696 135.582 22.0866 134.749 23.1324C133.936 24.1588 132.793 24.672 131.322 24.672H129.404ZM138.7 20.3436C139.262 20.3436 139.727 20.1596 140.095 19.7916C140.463 19.4043 140.647 18.9298 140.647 18.3681C140.647 17.8259 140.463 17.3804 140.095 17.0318C139.727 16.6639 139.262 16.4799 138.7 16.4799H136.783V18.3681C136.783 18.9298 136.957 19.4043 137.306 19.7916C137.674 20.1596 138.139 20.3436 138.7 20.3436Z" fill="#4E55EE"/>
<path d="M161.656 29.7849C159.971 29.7849 158.412 29.3588 156.978 28.5067C155.545 27.6739 154.403 26.5409 153.55 25.1078C152.718 23.6747 152.301 22.1156 152.301 20.4307V14.9983H156.485V20.1983C156.485 21.1279 156.717 21.9897 157.182 22.7838C157.647 23.5778 158.276 24.2072 159.07 24.672C159.864 25.1369 160.726 25.3693 161.656 25.3693C162.604 25.3693 163.476 25.1369 164.27 24.672C165.083 24.2072 165.723 23.5778 166.187 22.7838C166.652 21.9897 166.885 21.1279 166.885 20.1983V13.8363H170.923V20.4307C170.923 22.1156 170.506 23.6747 169.673 25.1078C168.86 26.5409 167.746 27.6739 166.333 28.5067C164.919 29.3588 163.36 29.7849 161.656 29.7849ZM159.709 11.1346H163.457V14.8531H159.709V11.1346ZM172.433 24.672C171 24.672 170.003 24.1879 169.441 23.2195C168.899 22.2318 168.628 20.8858 168.628 19.1815V13.8363H171.097V18.9201C171.097 19.3074 171.223 19.6367 171.475 19.9078C171.746 20.1596 172.065 20.2855 172.433 20.2855H173.682C173.876 20.2855 173.973 20.3823 173.973 20.576V24.3815C173.973 24.5752 173.876 24.672 173.682 24.672H172.433Z" fill="#4E55EE"/>
<path d="M173.398 20.576C173.398 20.3823 173.495 20.2855 173.689 20.2855H175.577C175.965 20.2855 176.284 20.1596 176.536 19.9078C176.788 19.6367 176.913 19.3074 176.913 18.9201V13.8363H181.097V18.9201C181.097 19.3074 181.223 19.6367 181.474 19.9078C181.726 20.1596 182.046 20.2855 182.433 20.2855H184.321C184.515 20.2855 184.612 20.3823 184.612 20.576V24.3815C184.612 24.5752 184.515 24.672 184.321 24.672H182.433C181 24.672 179.857 24.1976 179.005 23.2486C178.114 24.1976 176.972 24.672 175.577 24.672H173.689C173.495 24.672 173.398 24.5752 173.398 24.3815V20.576ZM174.502 27.1704H178.221V30.8888H174.502V27.1704ZM179.731 27.1704H183.479V30.8888H179.731V27.1704Z" fill="#4E55EE"/>
<path d="M193.624 24.7302C192.481 24.7302 191.445 24.4493 190.515 23.8877C189.605 23.3067 188.888 22.532 188.365 21.5637C187.843 20.5953 187.581 19.5301 187.581 18.3681V16.4799H185.78V12.3257H193.624C194.786 12.3257 195.851 12.5871 196.819 13.11C197.787 13.6329 198.552 14.3592 199.114 15.2888C199.695 16.1991 199.986 17.2255 199.986 18.3681C199.986 19.5108 199.695 20.576 199.114 21.5637C198.552 22.532 197.778 23.3067 196.79 23.8877C195.822 24.4493 194.766 24.7302 193.624 24.7302ZM184.327 24.672C184.134 24.672 184.037 24.5752 184.037 24.3815V20.576C184.037 20.3823 184.134 20.2855 184.327 20.2855H186.245C186.613 20.2855 186.923 20.1596 187.174 19.9078C187.446 19.6367 187.581 19.3074 187.581 18.9201V17.0609H190.922V19.1815C190.922 20.7696 190.505 22.0866 189.673 23.1324C188.859 24.1588 187.717 24.672 186.245 24.672H184.327ZM193.624 20.3436C194.185 20.3436 194.65 20.1596 195.018 19.7916C195.386 19.4043 195.57 18.9298 195.57 18.3681C195.57 17.8259 195.386 17.3804 195.018 17.0318C194.65 16.6639 194.185 16.4799 193.624 16.4799H191.706V18.3681C191.706 18.9298 191.881 19.4043 192.229 19.7916C192.597 20.1596 193.062 20.3436 193.624 20.3436Z" fill="#4E55EE"/>
<path d="M198 29.4072C199.375 28.6132 200.353 27.9741 200.934 27.4899C201.515 27.0058 201.902 26.4828 202.096 25.9212C202.29 25.3596 202.386 24.5462 202.386 23.481V13.8363H206.57V23.481C206.57 25.1078 206.366 26.4441 205.96 27.4899C205.553 28.5357 204.856 29.4653 203.868 30.2788C202.88 31.1115 201.447 31.9927 199.569 32.9223L198 29.4072ZM202.619 7.61954H206.337V11.338H202.619V7.61954Z" fill="#4E55EE"/>
<path d="M206.833 29.872C207.859 29.0586 208.595 28.3614 209.041 27.7804C209.506 27.1994 209.806 26.6087 209.941 26.0084C210.077 25.408 210.145 24.5655 210.145 23.481V13.8363H214.299V23.481C214.299 25.0497 214.144 26.3376 213.834 27.3447C213.544 28.3517 213.04 29.2717 212.324 30.1045C211.607 30.9372 210.551 31.8765 209.157 32.9223L206.833 29.872ZM215.635 24.672C214.183 24.672 213.108 24.1685 212.411 23.1614C211.733 22.1544 211.394 20.8277 211.394 19.1815V13.8363H214.299V18.9201C214.299 19.3074 214.425 19.6367 214.677 19.9078C214.928 20.1596 215.248 20.2855 215.635 20.2855H216.884C217.078 20.2855 217.175 20.3823 217.175 20.576V24.3815C217.175 24.5752 217.078 24.672 216.884 24.672H215.635Z" fill="#4E55EE"/>
<path d="M231.798 24.672C230.326 24.672 229.184 24.1588 228.37 23.1324C227.557 22.0866 227.15 20.7696 227.15 19.1815V13.8363H230.491V18.9201C230.491 19.3074 230.617 19.6367 230.869 19.9078C231.12 20.1596 231.43 20.2855 231.798 20.2855H232.844V12.9648H237.027V24.672H231.798ZM216.896 24.672C216.702 24.672 216.605 24.5752 216.605 24.3815V20.576C216.605 20.3823 216.702 20.2855 216.896 20.2855H218.116C218.503 20.2855 218.823 20.1596 219.074 19.9078C219.345 19.6367 219.481 19.3074 219.481 18.9201V13.8363H222.822V19.1815C222.822 20.7696 222.405 22.0866 221.573 23.1324C220.759 24.1588 219.607 24.672 218.116 24.672H216.896ZM224.971 24.7302C223.5 24.7302 222.347 24.2169 221.514 23.1905C220.701 22.1447 220.294 20.8277 220.294 19.2396V13.8363H223.635V18.9782C223.635 19.3655 223.761 19.6948 224.013 19.9659C224.265 20.2177 224.584 20.3436 224.971 20.3436C225.359 20.3436 225.678 20.2177 225.93 19.9659C226.182 19.6948 226.308 19.3655 226.308 18.9782V13.8363H229.649V19.2396C229.649 20.8277 229.232 22.1447 228.399 23.1905C227.586 24.2169 226.443 24.7302 224.971 24.7302Z" fill="#4E55EE"/>
</mask>
<g mask="url(#mask0_789_11997)">
<path d="M2.06195 46.9271C9.4337 83.7385 39.101 118.645 77.2295 118.645C109.112 118.645 146.623 100.778 139.506 64.9014C130.609 20.055 186.894 36.759 188.528 -10.9924C190.162 -58.7438 113.724 -24.7921 70.1485 -47.8502C23.6374 -72.4617 -7.82843 -2.46138 2.06195 46.9271Z" fill="#2F82FF"/>
<path d="M51.4487 46.9271C58.8204 83.7385 88.4878 118.645 126.616 118.645C158.499 118.645 196.01 100.778 188.893 64.9014C179.996 20.055 236.281 36.759 237.915 -10.9924C239.549 -58.7438 163.111 -24.7921 119.535 -47.8502C73.0241 -72.4617 41.5583 -2.46138 51.4487 46.9271Z" fill="#FFBD5A"/>
<path d="M107.007 46.9271C114.379 83.7385 144.046 118.645 182.175 118.645C214.058 118.645 251.569 100.778 244.451 64.9014C235.555 20.055 291.84 36.759 293.474 -10.9924C295.108 -58.7438 218.669 -24.7921 175.094 -47.8502C128.583 -72.4617 97.1169 -2.46138 107.007 46.9271Z" fill="#FF3F3F"/>
<path d="M173.46 46.9271C180.832 83.7385 210.499 118.645 248.628 118.645C280.511 118.645 318.022 100.778 310.904 64.9014C302.008 20.055 358.293 36.759 359.927 -10.9924C361.561 -58.7438 285.122 -24.7921 241.547 -47.8502C195.036 -72.4617 163.57 -2.46138 173.46 46.9271Z" fill="#A35BFF"/>
</g>
</g>
<defs>
<filter id="filter0_b_789_11997" x="-7.02234" y="-6.4989" width="251.312" height="47.6716" filterUnits="userSpaceOnUse" color-interpolation-filters="sRGB">
<feFlood flood-opacity="0" result="BackgroundImageFix"/>
<feGaussianBlur in="BackgroundImageFix" stdDeviation="3.63128"/>
<feComposite in2="SourceAlpha" operator="in" result="effect1_backgroundBlur_789_11997"/>
<feBlend mode="normal" in="SourceGraphic" in2="effect1_backgroundBlur_789_11997" result="shape"/>
</filter>
</defs>
</svg>
